<svg version="1.1" id="Layer_1" xmlns="http://www.w3.org/2000/svg" xmlns:xlink="http://www.w3.org/1999/xlink" x="0px" y="0px"
	 width="100%" viewBox="0 0 362 99" enable-background="new 0 0 362 99" xml:space="preserve">
<path fill="#E8DCF8" opacity="1.000000" stroke="none" 
	d="
M241.000000,100.000000 
	C160.666687,100.000000 80.833374,100.000000 1.000043,100.000000 
	C1.000029,67.000031 1.000029,34.000053 1.000014,1.000061 
	C121.666618,1.000040 242.333237,1.000040 362.999878,1.000020 
	C362.999939,33.999935 362.999939,66.999870 362.999969,99.999908 
	C322.500000,100.000000 282.000000,100.000000 241.000000,100.000000 
M141.936127,74.304634 
	C142.256241,74.133949 142.576355,73.963264 143.637497,73.884834 
	C144.336914,73.884834 145.036316,73.884834 145.735733,73.884834 
	C145.728531,73.481003 145.721329,73.077171 145.714127,72.673340 
	C144.430588,72.748047 143.147064,72.822762 141.375641,73.054680 
	C141.223953,73.347069 141.072281,73.639465 140.574280,74.139000 
	C140.851089,74.233635 141.127899,74.328270 141.936127,74.304634 
M205.581787,74.010880 
	C205.514374,73.695541 205.446960,73.380203 205.379532,73.064857 
	C204.905502,73.535851 204.431473,74.006844 203.535339,74.932610 
	C203.535339,75.786606 203.535339,76.640602 203.535339,77.494591 
	C203.871048,77.505936 204.206757,77.517273 204.542465,77.528618 
	C204.706696,76.513359 204.870911,75.498108 205.581787,74.010880 
M186.806229,74.092369 
	C187.871597,75.379242 188.936966,76.666115 190.648880,78.733948 
	C190.473541,76.718338 190.850113,74.704399 190.104324,74.118050 
	C189.220062,73.422836 187.369003,73.957314 185.432404,74.457779 
	C184.178909,79.673286 184.178909,79.673286 187.134140,79.172653 
	C186.781708,77.473854 186.428802,75.772682 186.806229,74.092369 
M188.618027,36.744888 
	C192.051270,35.191711 191.918518,37.839115 191.788101,39.729519 
	C191.583405,42.696533 190.931915,45.632305 190.478653,48.582691 
	C189.609024,54.243492 190.711914,55.541199 196.065918,55.783436 
	C196.242020,52.254082 196.374710,48.750404 196.604630,45.253117 
	C196.789505,42.440838 197.460831,39.602188 197.205475,36.840977 
	C197.049805,35.157654 195.891678,32.761978 194.555954,32.212494 
	C193.135239,31.628050 190.881546,32.631096 189.171463,33.361916 
	C188.241486,33.759354 187.685211,35.031242 186.366287,36.290161 
	C185.740250,37.197075 185.114212,38.103989 184.821823,38.527542 
	C183.155975,35.874470 181.548492,33.314354 179.464966,29.996105 
	C178.697754,37.528866 178.278732,43.601608 177.401733,49.607475 
	C176.749908,54.071289 178.297943,55.813435 181.326447,55.453228 
	C183.702408,48.817001 185.822372,42.895824 188.618027,36.744888 
M165.208481,50.652950 
	C165.910858,53.458897 166.737854,56.143620 169.620575,56.136978 
	C170.291519,49.897774 170.862946,43.848267 171.615601,37.821396 
	C172.202454,33.122269 171.431198,32.233547 166.948410,32.334942 
	C165.810501,37.623608 164.707947,42.748001 163.086182,48.282578 
	C161.258636,49.425022 159.431107,50.567467 157.603577,51.709911 
	C157.106949,49.573280 155.656815,47.077660 156.299713,45.370052 
	C157.959961,40.960247 160.544708,36.898495 163.097244,32.058678 
	C160.791809,32.783154 157.510513,32.959251 155.439407,34.632927 
	C150.202454,38.864941 148.986130,44.952435 150.047241,51.368328 
	C150.668442,55.124397 154.623901,57.021782 158.143692,55.194672 
	C160.727066,53.853649 162.890320,51.703316 165.208481,50.652950 
M292.728210,49.979660 
	C294.102997,52.064705 295.477783,54.149754 297.176819,56.726597 
	C298.401093,45.860958 299.577728,36.320290 300.507294,26.755606 
	C300.919373,22.515421 300.975464,18.159569 295.509247,15.942993 
	C295.473145,27.474249 295.542328,38.571621 290.499329,49.453686 
	C288.819763,50.197235 287.140167,50.940784 285.460632,51.684334 
	C284.983246,49.983646 284.050720,48.266804 284.110413,46.585194 
	C284.322296,40.616261 287.125336,35.982929 292.498077,33.004082 
	C291.942780,32.548470 291.738617,32.238182 291.491791,32.199444 
	C286.090698,31.351643 282.616913,34.114906 280.206024,38.507706 
	C277.518951,43.403770 276.433685,48.705978 279.626282,53.579762 
	C280.591064,55.052559 284.278137,56.013390 286.051392,55.370197 
	C288.377289,54.526543 290.042725,51.861988 292.728210,49.979660 
M83.259567,72.948357 
	C78.463921,72.948357 73.668282,72.948357 68.903641,72.948357 
	C68.903641,70.046448 68.903641,67.638687 68.903641,64.900513 
	C81.167023,64.900513 93.139175,64.780075 105.106705,64.962486 
	C109.606865,65.031082 111.359993,63.397820 111.302483,58.828335 
	C111.124268,44.667019 111.095856,30.499807 111.319168,16.339769 
	C111.390991,11.785398 109.509514,10.683580 105.363731,10.702932 
	C79.869881,10.821932 54.375195,10.751440 28.880804,10.770945 
	C23.078136,10.775384 22.420631,11.458779 22.403406,17.513660 
	C22.369272,29.510931 22.393250,41.508366 22.393232,53.505733 
	C22.393217,64.900589 22.393234,64.900597 33.836746,64.900597 
	C44.284203,64.900597 54.731655,64.900589 65.063347,64.900589 
	C65.063347,67.904755 65.063347,70.305687 65.063347,72.948349 
	C61.424583,72.948349 58.106956,72.871674 54.794613,72.971100 
	C51.808449,73.060722 48.828072,73.343208 45.845139,73.540634 
	C50.240383,76.901360 85.282326,76.557816 88.786102,73.716064 
	C86.798599,73.383537 85.498283,73.165985 83.259567,72.948357 
M76.499741,92.195435 
	C83.524323,92.195435 90.548912,92.195435 98.888962,92.195435 
	C96.375145,87.850929 94.864388,84.765320 92.871658,82.030945 
	C92.080872,80.945839 90.226204,80.078453 88.846962,80.065536 
	C74.052750,79.926857 59.256496,79.942123 44.461689,80.043968 
	C43.168587,80.052872 41.206528,80.614441 40.714817,81.537224 
	C39.036652,84.686562 37.876976,88.112175 36.207447,92.195435 
	C49.955097,92.195435 62.727467,92.195435 76.499741,92.195435 
M226.651443,56.098049 
	C231.186234,55.898170 234.602768,54.230968 236.033752,50.303341 
	C232.795685,50.966511 229.705215,52.342079 226.957489,51.840416 
	C225.637207,51.599373 224.964249,47.812881 223.735062,45.038078 
	C227.086166,45.038078 229.098740,45.242550 231.054352,44.995701 
	C235.181122,44.474796 238.076279,40.886791 237.547653,36.975872 
	C236.946182,32.525887 233.755844,31.476564 229.897415,31.663954 
	C224.178589,31.941694 219.474167,36.936764 218.462891,43.673023 
	C217.558823,49.695171 220.046890,53.851574 226.651443,56.098049 
M252.782684,31.692638 
	C244.452393,33.466969 239.408371,41.957195 242.196548,49.906078 
	C243.649750,54.049065 246.658051,56.639942 251.323318,55.985302 
	C255.118011,55.452827 258.331146,53.860870 259.129333,50.095657 
	C256.084961,50.911793 253.100159,52.570347 250.531387,52.074322 
	C249.022903,51.783035 248.176208,48.064613 246.837189,45.517479 
	C257.763489,44.501511 260.749756,42.841160 260.787292,37.883598 
	C260.823151,33.139660 257.652832,31.711454 252.782684,31.692638 
M130.421829,54.108292 
	C133.730637,54.659412 137.216934,56.147694 140.310379,55.561764 
	C146.296021,54.428013 147.462448,48.475994 142.974304,44.296558 
	C141.979691,43.370361 140.929993,42.503319 139.619614,41.359329 
	C146.131546,39.304516 147.827133,36.173828 144.712585,33.047493 
	C142.015488,30.340191 135.775711,30.689304 132.802170,33.713860 
	C130.003357,36.560680 130.263474,40.749798 133.589554,43.849323 
	C135.284698,45.429001 137.384506,46.601734 138.941650,48.290184 
	C139.670319,49.080288 140.160065,51.152508 139.667267,51.762733 
	C138.894852,52.719219 137.142120,53.420876 135.912094,53.281528 
	C135.097046,53.189190 134.190872,51.525196 133.843460,50.404251 
	C133.545151,49.441730 133.981552,48.251507 134.142471,46.679188 
	C129.570145,47.491798 127.685577,49.258644 130.421829,54.108292 
M308.951019,34.373802 
	C303.625061,40.144779 302.382599,46.743896 305.636108,52.015095 
	C307.711670,55.377842 310.785980,56.711296 314.564178,55.879158 
	C317.939575,55.135754 320.550812,53.281719 321.856628,50.074219 
	C318.491638,50.915764 315.447998,52.505981 312.785248,52.017944 
	C311.295258,51.744854 310.436890,48.025757 308.856689,45.030754 
	C312.382202,45.030754 314.538940,45.246998 316.635925,44.984966 
	C320.784363,44.466591 323.528809,40.959198 323.053650,36.955502 
	C322.514221,32.410423 319.233124,31.380947 315.472351,31.765549 
	C313.435486,31.973846 311.498077,33.154427 308.951019,34.373802 
M329.003998,41.669575 
	C329.704865,45.595707 330.316650,49.541389 331.170898,53.433868 
	C331.377930,54.377224 332.332367,55.787418 333.035645,55.844563 
	C334.116547,55.932396 335.851135,55.348885 336.312134,54.505630 
	C339.492859,48.687172 342.623138,42.818001 345.267639,36.746460 
	C345.895294,35.305485 344.616089,33.033974 344.214020,31.144485 
	C343.862091,31.285231 343.510162,31.425976 343.158234,31.566721 
	C340.771637,37.188480 338.385040,42.810238 335.477203,49.659733 
	C334.613190,43.812778 334.080566,39.535069 333.326721,35.296707 
	C332.573273,31.060608 330.278412,30.193541 326.705231,32.432407 
	C327.476990,35.387711 328.187347,38.107800 329.003998,41.669575 
M213.585144,32.383026 
	C213.108124,31.341213 212.742828,30.227615 212.129700,29.273268 
	C211.019562,27.545393 209.761612,25.912493 208.565369,24.239941 
	C207.694366,24.320240 206.823349,24.400539 205.952347,24.480839 
	C210.595428,31.286211 202.704254,32.332474 201.595795,36.793190 
	C203.379059,36.922062 204.693024,37.017025 205.824524,37.098797 
	C206.439804,44.064896 200.789291,51.672474 208.930710,57.733948 
	C209.833969,50.013771 210.632233,43.190907 211.406586,36.572620 
	C213.363480,36.058254 214.898911,35.909943 216.131500,35.220329 
	C216.725723,34.887871 216.749603,33.535976 217.031738,32.645699 
	C216.174606,32.510666 215.317490,32.375637 213.585144,32.383026 
M146.176819,79.095398 
	C145.193817,77.334770 145.193817,77.334770 141.842422,79.795570 
	C143.611160,79.673286 144.633545,79.602600 146.176819,79.095398 
M208.804733,76.457520 
	C208.443985,76.098190 208.083237,75.738861 207.722488,75.379539 
	C207.449188,75.704308 207.175888,76.029076 206.902588,76.353851 
	C207.405899,76.530640 207.909225,76.707428 208.804733,76.457520 
M209.487595,79.555786 
	C209.487595,79.555786 209.447601,79.477379 209.487595,79.555786 
z"/>
<path fill="#1A181C" opacity="1.000000" stroke="none" 
	d="
M83.728767,72.948395 
	C85.498283,73.165985 86.798599,73.383537 88.786102,73.716064 
	C85.282326,76.557816 50.240383,76.901360 45.845139,73.540634 
	C48.828072,73.343208 51.808449,73.060722 54.794613,72.971100 
	C58.106956,72.871674 61.424583,72.948349 65.063347,72.948349 
	C65.063347,70.305687 65.063347,67.904755 65.063347,64.900589 
	C54.731655,64.900589 44.284203,64.900597 33.836746,64.900597 
	C22.393234,64.900597 22.393217,64.900589 22.393232,53.505733 
	C22.393250,41.508366 22.369272,29.510931 22.403406,17.513660 
	C22.420631,11.458779 23.078136,10.775384 28.880804,10.770945 
	C54.375195,10.751440 79.869881,10.821932 105.363731,10.702932 
	C109.509514,10.683580 111.390991,11.785398 111.319168,16.339769 
	C111.095856,30.499807 111.124268,44.667019 111.302483,58.828335 
	C111.359993,63.397820 109.606865,65.031082 105.106705,64.962486 
	C93.139175,64.780075 81.167023,64.900513 68.903641,64.900513 
	C68.903641,67.638687 68.903641,70.046448 68.903641,72.948357 
	C73.668282,72.948357 78.463921,72.948357 83.728767,72.948395 
M108.101982,33.500381 
	C108.101982,27.071432 108.101982,20.642485 108.101982,14.175156 
	C80.337753,14.175156 53.130791,14.175156 26.020176,14.175156 
	C26.020176,30.151939 26.020176,45.848114 26.020176,61.574982 
	C53.518635,61.574982 80.599525,61.574982 108.101982,61.574982 
	C108.101982,52.427650 108.101982,43.463913 108.101982,33.500381 
z"/>
<path fill="#0B0B0C" opacity="1.000000" stroke="none" 
	d="
M75.999786,92.195435 
	C62.727467,92.195435 49.955097,92.195435 36.207447,92.195435 
	C37.876976,88.112175 39.036652,84.686562 40.714817,81.537224 
	C41.206528,80.614441 43.168587,80.052872 44.461689,80.043968 
	C59.256496,79.942123 74.052750,79.926857 88.846962,80.065536 
	C90.226204,80.078453 92.080872,80.945839 92.871658,82.030945 
	C94.864388,84.765320 96.375145,87.850929 98.888962,92.195435 
	C90.548912,92.195435 83.524323,92.195435 75.999786,92.195435 
M76.497772,89.173615 
	C81.924194,89.173615 87.350609,89.173615 92.777031,89.173615 
	C93.065742,88.658455 93.354462,88.143288 93.643173,87.628128 
	C91.513580,86.084221 89.418541,83.261520 87.248810,83.202881 
	C72.600273,82.806999 57.935917,82.996414 43.158096,82.996414 
	C42.352840,84.943901 41.606693,86.748421 40.603912,89.173615 
	C52.620617,89.173615 64.059479,89.173615 76.497772,89.173615 
z"/>
<path fill="#2E134A" opacity="1.000000" stroke="none" 
	d="
M226.250305,56.055054 
	C220.046890,53.851574 217.558823,49.695171 218.462891,43.673023 
	C219.474167,36.936764 224.178589,31.941694 229.897415,31.663954 
	C233.755844,31.476564 236.946182,32.525887 237.547653,36.975872 
	C238.076279,40.886791 235.181122,44.474796 231.054352,44.995701 
	C229.098740,45.242550 227.086166,45.038078 223.735062,45.038078 
	C224.964249,47.812881 225.637207,51.599373 226.957489,51.840416 
	C229.705215,52.342079 232.795685,50.966511 236.033752,50.303341 
	C234.602768,54.230968 231.186234,55.898170 226.250305,56.055054 
M232.057541,37.506058 
	C231.180099,36.527367 229.910370,34.557938 229.486832,34.725632 
	C225.872925,36.156509 224.863678,39.158730 225.044144,42.641479 
	C225.508057,43.040512 225.971954,43.439541 226.435867,43.838570 
	C228.281189,41.984272 230.126511,40.129974 232.057541,37.506058 
z"/>
<path fill="#2E1349" opacity="1.000000" stroke="none" 
	d="
M253.149734,31.636999 
	C257.652832,31.711454 260.823151,33.139660 260.787292,37.883598 
	C260.749756,42.841160 257.763489,44.501511 246.837189,45.517479 
	C248.176208,48.064613 249.022903,51.783035 250.531387,52.074322 
	C253.100159,52.570347 256.084961,50.911793 259.129333,50.095657 
	C258.331146,53.860870 255.118011,55.452827 251.323318,55.985302 
	C246.658051,56.639942 243.649750,54.049065 242.196548,49.906078 
	C239.408371,41.957195 244.452393,33.466969 253.149734,31.636999 
M248.330139,40.007130 
	C248.533997,40.975998 248.737854,41.944866 248.941727,42.913727 
	C250.907150,41.683338 253.183655,40.737404 254.691391,39.088490 
	C255.332489,38.387341 254.363754,36.214184 254.126617,34.709995 
	C252.477173,35.763210 250.798248,36.774757 249.202209,37.903484 
	C248.868164,38.139725 248.839600,38.807934 248.330139,40.007130 
z"/>
<path fill="#2E1249" opacity="1.000000" stroke="none" 
	d="
M130.149841,53.808369 
	C127.685577,49.258644 129.570145,47.491798 134.142471,46.679188 
	C133.981552,48.251507 133.545151,49.441730 133.843460,50.404251 
	C134.190872,51.525196 135.097046,53.189190 135.912094,53.281528 
	C137.142120,53.420876 138.894852,52.719219 139.667267,51.762733 
	C140.160065,51.152508 139.670319,49.080288 138.941650,48.290184 
	C137.384506,46.601734 135.284698,45.429001 133.589554,43.849323 
	C130.263474,40.749798 130.003357,36.560680 132.802170,33.713860 
	C135.775711,30.689304 142.015488,30.340191 144.712585,33.047493 
	C147.827133,36.173828 146.131546,39.304516 139.619614,41.359329 
	C140.929993,42.503319 141.979691,43.370361 142.974304,44.296558 
	C147.462448,48.475994 146.296021,54.428013 140.310379,55.561764 
	C137.216934,56.147694 133.730637,54.659412 130.149841,53.808369 
M136.324097,38.244514 
	C137.445511,39.498596 138.566910,40.752674 139.688324,42.006756 
	C140.226074,41.813885 140.763840,41.621017 141.301590,41.428146 
	C140.860443,39.057110 140.419296,36.686073 139.978149,34.315037 
	C138.695480,35.361534 137.412811,36.408035 136.324097,38.244514 
z"/>
<path fill="#2B1047" opacity="1.000000" stroke="none" 
	d="
M309.233398,34.135105 
	C311.498077,33.154427 313.435486,31.973846 315.472351,31.765549 
	C319.233124,31.380947 322.514221,32.410423 323.053650,36.955502 
	C323.528809,40.959198 320.784363,44.466591 316.635925,44.984966 
	C314.538940,45.246998 312.382202,45.030754 308.856689,45.030754 
	C310.436890,48.025757 311.295258,51.744854 312.785248,52.017944 
	C315.447998,52.505981 318.491638,50.915764 321.856628,50.074219 
	C320.550812,53.281719 317.939575,55.135754 314.564178,55.879158 
	C310.785980,56.711296 307.711670,55.377842 305.636108,52.015095 
	C302.382599,46.743896 303.625061,40.144779 309.233398,34.135105 
M311.625702,42.976570 
	C312.424500,42.844700 313.626007,42.996002 313.952362,42.531921 
	C315.361206,40.528343 316.590820,38.381618 317.652039,36.174644 
	C317.771179,35.926945 315.862549,34.376511 315.812683,34.422668 
	C314.121887,35.987328 312.350677,37.537285 311.036804,39.403214 
	C310.474304,40.202087 310.897614,41.695080 311.625702,42.976570 
z"/>
<path fill="#31164C" opacity="1.000000" stroke="none" 
	d="
M328.950867,41.248734 
	C328.187347,38.107800 327.476990,35.387711 326.705231,32.432407 
	C330.278412,30.193541 332.573273,31.060608 333.326721,35.296707 
	C334.080566,39.535069 334.613190,43.812778 335.477203,49.659733 
	C338.385040,42.810238 340.771637,37.188480 343.158234,31.566721 
	C343.510162,31.425976 343.862091,31.285231 344.214020,31.144485 
	C344.616089,33.033974 345.895294,35.305485 345.267639,36.746460 
	C342.623138,42.818001 339.492859,48.687172 336.312134,54.505630 
	C335.851135,55.348885 334.116547,55.932396 333.035645,55.844563 
	C332.332367,55.787418 331.377930,54.377224 331.170898,53.433868 
	C330.316650,49.541389 329.704865,45.595707 328.950867,41.248734 
z"/>
<path fill="#2F144A" opacity="1.000000" stroke="none" 
	d="
M291.052887,49.017170 
	C295.542328,38.571621 295.473145,27.474249 295.509247,15.942993 
	C300.975464,18.159569 300.919373,22.515421 300.507294,26.755606 
	C299.577728,36.320290 298.401093,45.860958 297.176819,56.726597 
	C295.477783,54.149754 294.102997,52.064705 292.251465,49.776985 
	C291.587555,49.319340 291.346954,49.133625 291.052887,49.017170 
z"/>
<path fill="#2C1148" opacity="1.000000" stroke="none" 
	d="
M214.022751,32.311813 
	C215.317490,32.375637 216.174606,32.510666 217.031738,32.645699 
	C216.749603,33.535976 216.725723,34.887871 216.131500,35.220329 
	C214.898911,35.909943 213.363480,36.058254 211.406586,36.572620 
	C210.632233,43.190907 209.833969,50.013771 208.930710,57.733948 
	C200.789291,51.672474 206.439804,44.064896 205.824524,37.098797 
	C204.693024,37.017025 203.379059,36.922062 201.595795,36.793190 
	C202.704254,32.332474 210.595428,31.286211 205.952347,24.480839 
	C206.823349,24.400539 207.694366,24.320240 208.565369,24.239941 
	C209.761612,25.912493 211.019562,27.545393 212.129700,29.273268 
	C212.742828,30.227615 213.108124,31.341213 214.022751,32.311813 
z"/>
<path fill="#30154B" opacity="1.000000" stroke="none" 
	d="
M165.240814,49.913658 
	C162.890320,51.703316 160.727066,53.853649 158.143692,55.194672 
	C154.623901,57.021782 150.668442,55.124397 150.047241,51.368328 
	C148.986130,44.952435 150.202454,38.864941 155.439407,34.632927 
	C157.510513,32.959251 160.791809,32.783154 163.097244,32.058678 
	C160.544708,36.898495 157.959961,40.960247 156.299713,45.370052 
	C155.656815,47.077660 157.106949,49.573280 157.603577,51.709915 
	C159.431107,50.567467 161.258636,49.425022 163.651306,48.117096 
	C164.557892,48.605625 164.899353,49.259644 165.240814,49.913658 
z"/>
<path fill="#2E134A" opacity="1.000000" stroke="none" 
	d="
M290.776123,49.235428 
	C291.346954,49.133625 291.587555,49.319340 291.883484,49.777451 
	C290.042725,51.861988 288.377289,54.526543 286.051392,55.370197 
	C284.278137,56.013390 280.591064,55.052559 279.626282,53.579762 
	C276.433685,48.705978 277.518951,43.403770 280.206024,38.507706 
	C282.616913,34.114906 286.090698,31.351643 291.491791,32.199444 
	C291.738617,32.238182 291.942780,32.548470 292.498077,33.004082 
	C287.125336,35.982929 284.322296,40.616261 284.110413,46.585194 
	C284.050720,48.266804 284.983246,49.983646 285.460632,51.684334 
	C287.140167,50.940784 288.819763,50.197235 290.776123,49.235428 
z"/>
<path fill="#2C1148" opacity="1.000000" stroke="none" 
	d="
M186.960388,35.908714 
	C187.685211,35.031242 188.241486,33.759354 189.171463,33.361916 
	C190.881546,32.631096 193.135239,31.628050 194.555954,32.212494 
	C195.891678,32.761978 197.049805,35.157654 197.205475,36.840977 
	C197.460831,39.602188 196.789505,42.440838 196.604630,45.253117 
	C196.374710,48.750404 196.242020,52.254082 196.065918,55.783436 
	C190.711914,55.541199 189.609024,54.243492 190.478653,48.582691 
	C190.931915,45.632305 191.583405,42.696533 191.788101,39.729519 
	C191.918518,37.839115 192.051270,35.191711 188.070282,36.728958 
	C187.267151,36.492470 187.079758,36.224365 186.960388,35.908714 
z"/>
<path fill="#30154C" opacity="1.000000" stroke="none" 
	d="
M186.663330,36.099438 
	C187.079758,36.224365 187.267151,36.492470 187.732452,36.843842 
	C185.822372,42.895824 183.702408,48.817001 181.326447,55.453228 
	C178.297943,55.813435 176.749908,54.071289 177.401733,49.607475 
	C178.278732,43.601608 178.697754,37.528866 179.464966,29.996105 
	C181.548492,33.314354 183.155975,35.874470 184.821823,38.527542 
	C185.114212,38.103989 185.740250,37.197075 186.663330,36.099438 
z"/>
<path fill="#2B1046" opacity="1.000000" stroke="none" 
	d="
M165.224655,50.283302 
	C164.899353,49.259644 164.557892,48.605625 163.910919,47.912003 
	C164.707947,42.748001 165.810501,37.623608 166.948410,32.334942 
	C171.431198,32.233547 172.202454,33.122269 171.615601,37.821396 
	C170.862946,43.848267 170.291519,49.897774 169.620575,56.136978 
	C166.737854,56.143620 165.910858,53.458897 165.224655,50.283302 
z"/>
<path fill="#DACCEB" opacity="1.000000" stroke="none" 
	d="
M185.936951,73.958847 
	C187.369003,73.957314 189.220062,73.422836 190.104324,74.118050 
	C190.850113,74.704399 190.473541,76.718338 190.648880,78.733948 
	C188.936966,76.666115 187.871597,75.379242 186.407410,74.052429 
	C186.008591,74.012497 185.936951,73.958847 185.936951,73.958847 
z"/>
<path fill="#DACCEB" opacity="1.000000" stroke="none" 
	d="
M186.042236,74.042007 
	C186.428802,75.772682 186.781708,77.473854 187.134140,79.172653 
	C184.178909,79.673286 184.178909,79.673286 185.684677,74.208313 
	C185.936951,73.958847 186.008591,74.012497 186.042236,74.042007 
z"/>
<path fill="#D8CAE9" opacity="1.000000" stroke="none" 
	d="
M145.916382,79.313660 
	C144.633545,79.602600 143.611160,79.673286 141.842422,79.795570 
	C145.193817,77.334770 145.193817,77.334770 145.916382,79.313660 
z"/>
<path fill="#D6C8E7" opacity="1.000000" stroke="none" 
	d="
M205.035141,74.482857 
	C204.870911,75.498108 204.706696,76.513359 204.542465,77.528618 
	C204.206757,77.517273 203.871048,77.505936 203.535339,77.494591 
	C203.535339,76.640602 203.535339,75.786606 204.014984,74.892075 
	C204.674789,74.728645 204.854965,74.605751 205.035141,74.482857 
z"/>
<path fill="#9885AD" opacity="1.000000" stroke="none" 
	d="
M141.863525,72.897476 
	C143.147064,72.822762 144.430588,72.748047 145.714127,72.673340 
	C145.721329,73.077171 145.728531,73.481003 145.735733,73.884834 
	C145.036316,73.884834 144.336914,73.884834 143.137192,73.646423 
	C142.407547,73.194725 142.149765,73.024551 141.863525,72.897476 
z"/>
<path fill="#A795BB" opacity="1.000000" stroke="none" 
	d="
M208.608643,76.670868 
	C207.909225,76.707428 207.405899,76.530640 206.902588,76.353851 
	C207.175888,76.029076 207.449188,75.704308 207.722488,75.379532 
	C208.083237,75.738861 208.443985,76.098190 208.608643,76.670868 
z"/>
<path fill="#806B96" opacity="1.000000" stroke="none" 
	d="
M205.308472,74.246872 
	C204.854965,74.605751 204.674789,74.728645 204.226044,74.664688 
	C204.431473,74.006844 204.905502,73.535851 205.379547,73.064865 
	C205.446960,73.380203 205.514374,73.695541 205.308472,74.246872 
z"/>
<path fill="#806B96" opacity="1.000000" stroke="none" 
	d="
M141.619583,72.976074 
	C142.149765,73.024551 142.407547,73.194725 142.766693,73.600296 
	C142.576355,73.963264 142.256241,74.133949 141.551971,74.238464 
	C141.167831,74.172287 140.920593,73.931854 140.920593,73.931854 
	C141.072281,73.639465 141.223953,73.347069 141.619583,72.976074 
z"/>
<path fill="#806B96" opacity="1.000000" stroke="none" 
	d="
M141.286270,74.297592 
	C141.127899,74.328270 140.851089,74.233635 140.747437,74.035431 
	C140.920593,73.931854 141.167831,74.172287 141.286270,74.297592 
z"/>
<path fill="#D6C8E7" opacity="1.000000" stroke="none" 
	d="
M209.467590,79.516586 
	C209.447601,79.477379 209.487595,79.555786 209.467590,79.516586 
z"/>
<path fill="#E7DCF7" opacity="1.000000" stroke="none" 
	d="
M108.101982,34.000278 
	C108.101982,43.463913 108.101982,52.427650 108.101982,61.574982 
	C80.599525,61.574982 53.518635,61.574982 26.020176,61.574982 
	C26.020176,45.848114 26.020176,30.151939 26.020176,14.175156 
	C53.130791,14.175156 80.337753,14.175156 108.101982,14.175156 
	C108.101982,20.642485 108.101982,27.071432 108.101982,34.000278 
M54.362228,39.312679 
	C53.515057,39.166950 52.667885,39.021225 51.528965,39.383411 
	C52.192646,39.554836 52.856327,39.726261 54.362228,39.312679 
M69.310173,34.345974 
	C69.554375,33.302605 69.990593,32.250664 69.944580,31.220259 
	C69.927124,30.829342 68.799141,30.488020 68.177330,30.124094 
	C68.095352,30.559711 68.013367,30.995327 67.245743,31.742651 
	C66.750275,33.138832 66.254807,34.535011 65.253769,36.479073 
	C65.036339,38.199516 64.818909,39.919964 64.601471,41.640408 
	C65.176468,41.735466 65.751457,41.830524 66.326447,41.925583 
	C67.016685,40.026169 67.706932,38.126751 68.739754,35.898273 
	C68.918922,35.625679 69.014969,35.326405 69.310173,34.345974 
M56.518246,42.413662 
	C58.041248,43.113777 59.564251,43.813889 61.540482,44.722347 
	C60.349300,43.044376 59.639095,41.829163 58.720516,40.799915 
	C57.315147,39.225212 56.738766,39.486732 56.518246,42.413662 
M75.966499,43.028160 
	C76.635880,42.282383 77.305260,41.536606 77.974632,40.790825 
	C77.171898,40.562946 76.369171,40.335064 75.566444,40.107185 
	C75.406982,41.010937 75.247528,41.914684 75.966499,43.028160 
M78.500000,40.000000 
	C78.633331,39.799999 78.766670,39.600002 78.900002,39.400002 
	C78.599998,39.433334 78.300003,39.466667 78.500000,40.000000 
M65.952942,42.502274 
	C65.726631,42.420868 65.500320,42.339458 65.274010,42.258053 
	C65.348221,42.498795 65.422432,42.739532 65.952942,42.502274 
z"/>
<path fill="#DDD2EC" opacity="1.000000" stroke="none" 
	d="
M75.998055,89.173615 
	C64.059479,89.173615 52.620617,89.173615 40.603912,89.173615 
	C41.606693,86.748421 42.352840,84.943901 43.158096,82.996414 
	C57.935917,82.996414 72.600273,82.806999 87.248810,83.202881 
	C89.418541,83.261520 91.513580,86.084221 93.643173,87.628128 
	C93.354462,88.143288 93.065742,88.658455 92.777031,89.173615 
	C87.350609,89.173615 81.924194,89.173615 75.998055,89.173615 
M74.207321,87.025948 
	C64.411766,87.025948 54.616203,87.025948 44.820644,87.025948 
	C44.824924,87.260796 44.829201,87.495651 44.833477,87.730499 
	C56.047153,87.730499 67.260826,87.730499 78.474503,87.730499 
	C78.479294,87.573593 78.484093,87.416695 78.488884,87.259789 
	C77.366188,87.181847 76.243484,87.103897 74.207321,87.025948 
M48.919125,85.192200 
	C58.803856,85.192200 68.688583,85.192200 78.573318,85.192200 
	C78.568367,84.913155 78.563416,84.634117 78.558472,84.355072 
	C67.595093,84.355072 56.631710,84.355072 45.668331,84.355072 
	C45.660019,84.537903 45.651711,84.720734 45.643398,84.903564 
	C46.438168,84.999298 47.232937,85.095032 48.919125,85.192200 
z"/>
<path fill="#DED1EF" opacity="1.000000" stroke="none" 
	d="
M232.014679,37.890869 
	C230.126511,40.129974 228.281189,41.984272 226.435867,43.838570 
	C225.971954,43.439541 225.508057,43.040512 225.044144,42.641479 
	C224.863678,39.158730 225.872925,36.156509 229.486832,34.725632 
	C229.910370,34.557938 231.180099,36.527367 232.014679,37.890869 
z"/>
<path fill="#E1D5F2" opacity="1.000000" stroke="none" 
	d="
M248.500214,39.642105 
	C248.839600,38.807934 248.868164,38.139725 249.202209,37.903484 
	C250.798248,36.774757 252.477173,35.763210 254.126617,34.709991 
	C254.363754,36.214184 255.332489,38.387341 254.691391,39.088490 
	C253.183655,40.737404 250.907150,41.683338 248.941711,42.913734 
	C248.737854,41.944866 248.533997,40.975998 248.500214,39.642105 
z"/>
<path fill="#E8DCF8" opacity="1.000000" stroke="none" 
	d="
M136.227112,37.849525 
	C137.412811,36.408035 138.695480,35.361534 139.978149,34.315037 
	C140.419296,36.686073 140.860443,39.057110 141.301590,41.428146 
	C140.763840,41.621017 140.226074,41.813885 139.688324,42.006756 
	C138.566910,40.752674 137.445511,39.498596 136.227112,37.849525 
z"/>
<path fill="#D5C7E6" opacity="1.000000" stroke="none" 
	d="
M311.249329,42.924629 
	C310.897614,41.695080 310.474304,40.202087 311.036804,39.403214 
	C312.350677,37.537285 314.121887,35.987328 315.812683,34.422668 
	C315.862549,34.376511 317.771179,35.926945 317.652039,36.174644 
	C316.590820,38.381618 315.361206,40.528343 313.952362,42.531921 
	C313.626007,42.996002 312.424500,42.844700 311.249329,42.924629 
z"/>
<path fill="#817A8A" opacity="1.000000" stroke="none" 
	d="
M68.397171,36.227333 
	C67.706932,38.126751 67.016685,40.026169 66.326447,41.925583 
	C65.751457,41.830524 65.176468,41.735466 64.601471,41.640408 
	C64.818909,39.919964 65.036339,38.199516 65.940964,36.291458 
	C67.217819,36.145008 67.807495,36.186172 68.397171,36.227333 
z"/>
<path fill="#726D7A" opacity="1.000000" stroke="none" 
	d="
M56.175018,42.181808 
	C56.738766,39.486732 57.315147,39.225212 58.720516,40.799915 
	C59.639095,41.829163 60.349300,43.044376 61.540482,44.722347 
	C59.564251,43.813889 58.041248,43.113777 56.175018,42.181808 
z"/>
<path fill="#817A8A" opacity="1.000000" stroke="none" 
	d="
M67.931381,31.430943 
	C68.013367,30.995327 68.095352,30.559711 68.177330,30.124094 
	C68.799141,30.488020 69.927124,30.829342 69.944580,31.220259 
	C69.990593,32.250664 69.554375,33.302605 68.960022,34.357002 
	C68.383705,33.389000 68.157539,32.409973 67.931381,31.430943 
z"/>
<path fill="#6B6572" opacity="1.000000" stroke="none" 
	d="
M67.588562,31.586796 
	C68.157539,32.409973 68.383705,33.389000 68.818878,34.684242 
	C69.014969,35.326405 68.918922,35.625679 68.568459,36.062805 
	C67.807495,36.186172 67.217819,36.145008 66.193741,36.017521 
	C66.254807,34.535011 66.750275,33.138832 67.588562,31.586796 
z"/>
<path fill="#726D7A" opacity="1.000000" stroke="none" 
	d="
M75.527283,42.923294 
	C75.247528,41.914684 75.406982,41.010937 75.566437,40.107185 
	C76.369171,40.335064 77.171898,40.562946 77.974632,40.790825 
	C77.305260,41.536606 76.635880,42.282383 75.527283,42.923294 
z"/>
<path fill="#635E69" opacity="1.000000" stroke="none" 
	d="
M51.820713,38.875496 
	C52.667885,39.021225 53.515057,39.166950 53.581215,39.241714 
	C52.473701,39.072334 52.147209,38.973915 51.820713,38.875496 
z"/>
<path fill="#635E69" opacity="1.000000" stroke="none" 
	d="
M53.160103,39.534218 
	C52.856327,39.726261 52.192646,39.554836 51.674839,39.129456 
	C52.147209,38.973915 52.473701,39.072334 53.160103,39.534218 
z"/>
<path fill="#726D7A" opacity="1.000000" stroke="none" 
	d="
M78.250000,39.750000 
	C78.300003,39.466667 78.599998,39.433334 78.900002,39.400002 
	C78.766670,39.600002 78.633331,39.799999 78.250000,39.750000 
z"/>
<path fill="#817A8A" opacity="1.000000" stroke="none" 
	d="
M65.724792,42.741272 
	C65.422432,42.739532 65.348221,42.498795 65.274010,42.258053 
	C65.500320,42.339458 65.726631,42.420868 65.724792,42.741272 
z"/>
<path fill="#010101" opacity="1.000000" stroke="none" 
	d="
M74.664055,87.025955 
	C76.243484,87.103897 77.366188,87.181847 78.488884,87.259789 
	C78.484093,87.416695 78.479294,87.573593 78.474503,87.730499 
	C67.260826,87.730499 56.047153,87.730499 44.833477,87.730499 
	C44.829201,87.495651 44.824924,87.260796 44.820644,87.025948 
	C54.616203,87.025948 64.411766,87.025948 74.664055,87.025955 
z"/>
<path fill="#3C3940" opacity="1.000000" stroke="none" 
	d="
M48.473415,85.191483 
	C47.232937,85.095032 46.438168,84.999298 45.643398,84.903564 
	C45.651711,84.720734 45.660019,84.537903 45.668331,84.355072 
	C56.631710,84.355072 67.595093,84.355072 78.558472,84.355072 
	C78.563416,84.634117 78.568367,84.913155 78.573318,85.192200 
	C68.688583,85.192200 58.803856,85.192200 48.473415,85.191483 
z"/>
</svg>