<svg version="1.1" id="Layer_1" xmlns="http://www.w3.org/2000/svg" xmlns:xlink="http://www.w3.org/1999/xlink" x="0px" y="0px"
	 width="100%" viewBox="0 0 374 99" enable-background="new 0 0 374 99" xml:space="preserve">
<path fill="#715D8F" opacity="1.000000" stroke="none" 
	d="
M125.000000,1.000000 
	C131.687637,1.000000 138.375290,1.000000 145.491714,1.355895 
	C144.541992,3.712796 143.428650,5.976967 141.744110,7.674239 
	C124.228851,25.321848 106.602386,42.859047 89.072754,60.492485 
	C87.481361,62.093304 86.348656,64.150108 84.602898,65.969398 
	C81.383057,65.597305 78.563255,65.250977 75.291542,64.849152 
	C77.609894,67.761177 79.363014,69.963226 81.085976,72.118988 
	C81.055809,72.072701 81.151253,72.128845 80.821487,72.195641 
	C76.455147,74.191826 72.418571,76.121216 68.334778,77.638443 
	C68.550514,75.686089 68.813492,74.145897 69.076469,72.605713 
	C68.700584,72.521660 68.324692,72.437614 67.948807,72.353561 
	C67.263863,75.085564 66.578911,77.817566 65.878258,80.612198 
	C59.862701,80.612198 53.938004,80.612198 48.021461,80.288223 
	C48.017788,79.316238 48.005959,78.668213 48.253548,78.029099 
	C48.685780,78.029213 48.858593,78.020424 49.377876,77.974701 
	C51.745773,76.962303 53.767200,75.986832 55.961945,75.343353 
	C57.579266,75.988190 59.023270,76.301033 60.467278,76.613869 
	C60.575909,74.712036 60.684544,72.810204 60.838932,70.107407 
	C61.081844,69.882759 62.125999,68.917114 63.514458,67.932495 
	C65.436050,66.815277 67.013336,65.717049 68.590614,64.618820 
	C68.031593,64.044441 67.472565,63.470066 66.913536,62.895687 
	C65.638237,64.511597 64.362946,66.127510 62.676399,67.768097 
	C60.095890,67.907532 57.568207,68.600029 57.924950,64.766663 
	C58.102844,64.368187 58.075996,64.176201 58.026001,63.998867 
	C58.002846,64.013519 57.968922,64.056549 58.283676,64.081146 
	C58.854103,63.780407 59.109768,63.455067 59.561104,63.016312 
	C59.998367,62.523029 60.239964,62.143162 60.858780,61.722412 
	C64.184830,60.122585 67.133659,58.563641 70.403854,56.904694 
	C71.803650,56.046547 73.019814,55.426636 73.940002,54.509697 
	C90.089935,38.416718 106.232628,22.316076 122.271095,6.112390 
	C123.573280,4.796803 124.108429,2.722012 125.000000,1.000000 
M72.851913,63.702221 
	C72.502136,63.862587 72.152367,64.022957 71.802597,64.183327 
	C72.019005,64.352287 72.366249,64.703819 72.429222,64.658691 
	C72.705688,64.460548 72.899963,64.147728 72.851913,63.702221 
M69.526283,69.496498 
	C69.526283,69.496498 69.487480,69.509361 69.526283,69.496498 
z"/>
<path fill="#6D5B93" opacity="1.000000" stroke="none" 
	d="
M85.002945,65.995163 
	C86.348656,64.150108 87.481361,62.093304 89.072754,60.492485 
	C106.602386,42.859047 124.228851,25.321848 141.744110,7.674239 
	C143.428650,5.976967 144.541992,3.712796 145.960251,1.355895 
	C153.354248,1.000000 160.708496,1.000000 168.435837,1.327466 
	C167.477051,3.332154 166.289902,5.153028 164.790283,6.663740 
	C153.414047,18.124182 141.909210,29.457987 130.620941,41.003819 
	C128.610016,43.060627 127.418495,45.918571 125.477112,48.289703 
	C115.719292,45.598202 110.761490,49.577969 112.542160,58.104527 
	C108.947884,61.172623 105.703636,64.176659 102.384743,67.095810 
	C98.961235,70.106995 95.465080,73.035576 91.810699,75.702850 
	C89.754372,73.253487 87.888062,71.101585 86.011703,68.974884 
	C86.001656,69.000076 86.039680,68.961235 86.143867,68.603302 
	C85.831520,67.996376 85.414993,67.747391 85.007919,67.248001 
	C85.012566,66.663445 85.007751,66.329308 85.002945,65.995163 
z"/>
<path fill="#5953A9" opacity="1.000000" stroke="none" 
	d="
M245.000000,0.999999 
	C253.020905,1.000000 261.041809,1.000000 269.434906,1.334669 
	C268.702789,3.308468 267.823486,5.169891 266.458557,6.551612 
	C255.396027,17.750475 244.204346,28.821779 233.144455,40.023232 
	C230.515900,42.685413 228.235687,45.691509 225.425903,48.415283 
	C214.257034,45.660202 206.435699,52.151436 206.672852,63.344051 
	C206.709778,65.087067 205.702530,66.852211 205.006195,68.905609 
	C204.209488,70.166641 203.584732,71.129189 202.558807,72.040329 
	C201.077057,70.779839 199.110916,69.601814 199.067215,68.356346 
	C198.864670,62.583469 199.195618,56.791882 199.706680,50.990562 
	C204.650864,50.472878 207.974136,49.242439 207.469101,43.308296 
	C207.290817,41.213573 209.594666,38.741879 211.129349,36.718441 
	C212.404602,35.037083 214.262787,33.809776 215.777451,32.295975 
	C221.849472,26.227354 228.006317,20.236959 233.897720,13.996631 
	C237.804291,9.858715 241.313126,5.345317 245.000000,0.999999 
z"/>
<path fill="#3945CB" opacity="1.000000" stroke="none" 
	d="
M375.000000,32.999996 
	C375.000000,40.354252 375.000000,47.708500 374.672546,55.626881 
	C373.139526,57.052822 371.787750,57.767597 370.750732,58.798866 
	C358.356079,71.124825 345.988678,83.478462 333.680603,95.890778 
	C332.552765,97.028183 331.882660,98.619476 331.000000,100.000000 
	C323.312408,100.000000 315.624847,100.000000 307.508240,99.644073 
	C307.538177,98.242416 307.740753,96.937340 308.495728,96.191185 
	C315.792542,88.979660 323.182159,81.862038 330.860382,74.790726 
	C336.037872,76.134163 339.351044,74.103928 341.174042,69.731560 
	C342.624695,66.252312 343.611450,62.579643 345.172363,58.957485 
	C347.322144,57.818588 349.367035,56.987526 350.839752,55.564400 
	C357.259491,49.360886 363.467407,42.938564 369.860535,36.706783 
	C371.356598,35.248470 373.275574,34.224030 375.000000,32.999996 
z"/>
<path fill="#5551AE" opacity="1.000000" stroke="none" 
	d="
M225.795242,48.539417 
	C228.235687,45.691509 230.515900,42.685413 233.144455,40.023232 
	C244.204346,28.821779 255.396027,17.750475 266.458557,6.551612 
	C267.823486,5.169891 268.702789,3.308468 269.903564,1.334669 
	C277.020966,1.000000 284.041901,1.000000 291.435730,1.327407 
	C290.477814,3.330894 289.291840,5.150795 287.793182,6.660228 
	C276.189514,18.347176 264.485748,29.935038 252.923676,41.662701 
	C251.228912,43.381733 250.119080,45.677418 248.335281,47.720741 
	C238.092606,46.481537 232.222549,52.154739 230.768982,64.090363 
	C228.290665,66.656502 226.146896,69.131592 223.645203,71.688644 
	C216.945740,70.110962 214.928360,67.060364 216.397079,61.050907 
	C217.101837,60.380764 217.566895,59.648739 218.424210,58.967018 
	C221.798523,57.360386 224.964676,55.934917 227.598297,53.839993 
	C228.090988,53.448078 226.451035,50.375118 225.795242,48.539417 
z"/>
<path fill="#504FB3" opacity="1.000000" stroke="none" 
	d="
M248.738602,47.706287 
	C250.119080,45.677418 251.228912,43.381733 252.923676,41.662701 
	C264.485748,29.935038 276.189514,18.347176 287.793182,6.660228 
	C289.291840,5.150795 290.477814,3.330894 291.904297,1.327407 
	C299.687592,1.000000 307.375153,1.000000 315.435791,1.327451 
	C304.957825,12.579021 294.106842,23.503139 282.906586,34.357285 
	C278.120178,32.801205 274.035492,33.065338 270.168060,36.777840 
	C271.407745,36.913055 272.203308,36.999836 272.957153,37.436871 
	C271.524231,39.778130 270.355927,41.980087 268.704407,43.724560 
	C260.408569,52.487251 251.986465,61.130379 243.294647,69.572510 
	C238.892990,64.030823 239.036545,63.165386 244.622375,59.919670 
	C246.056824,59.086163 247.589523,58.413940 248.986816,57.525642 
	C254.379288,54.097534 254.288300,51.121101 248.738602,47.706287 
z"/>
<path fill="#755E8A" opacity="1.000000" stroke="none" 
	d="
M124.531731,1.000000 
	C124.108429,2.722012 123.573280,4.796803 122.271095,6.112390 
	C106.232628,22.316076 90.089935,38.416718 73.940002,54.509697 
	C73.019814,55.426636 71.803650,56.046547 70.162643,56.706757 
	C68.734901,56.071980 67.869751,55.535141 66.693993,54.912483 
	C65.568649,53.892967 64.753906,52.959267 64.089310,51.830753 
	C64.257423,51.092396 64.275375,50.548855 64.293327,50.005310 
	C63.852650,50.426189 63.411972,50.847065 62.703033,51.504498 
	C60.897861,53.176868 59.315792,54.570484 57.882999,56.103619 
	C57.710068,56.288666 58.344410,57.228149 58.874847,57.879108 
	C59.327728,57.967922 59.510361,57.995602 59.691772,58.355782 
	C59.130527,60.125721 58.570499,61.563160 57.848160,63.258606 
	C57.780205,63.696594 57.874565,63.876572 57.968922,64.056549 
	C57.968922,64.056549 58.002846,64.013519 57.833183,63.794739 
	C57.345501,63.760086 57.027481,63.944214 56.673077,64.110931 
	C56.636688,64.093529 56.599663,64.165207 56.215534,64.333740 
	C53.210396,64.269058 50.589382,64.035835 47.857521,63.526546 
	C47.491699,62.500851 47.236729,61.751228 47.132626,60.701195 
	C47.578773,59.796833 47.874058,59.192883 48.294586,58.500854 
	C48.550228,58.253796 48.697830,58.112823 49.133430,58.001389 
	C49.584808,58.019470 49.765388,58.026016 50.192436,58.237621 
	C51.595749,58.737518 52.752583,59.032356 53.909420,59.327198 
	C53.628811,58.505535 53.348202,57.683872 53.156364,56.542328 
	C55.496578,52.804543 57.748016,49.386642 60.287476,45.808544 
	C63.579903,43.659248 66.584305,41.670147 69.835632,39.393661 
	C79.825554,29.449270 89.657219,19.879103 99.253242,10.078223 
	C101.866653,7.409024 103.770508,4.045093 106.000000,1.000000 
	C112.021156,1.000000 118.042305,1.000000 124.531731,1.000000 
z"/>
<path fill="#5F56A4" opacity="1.000000" stroke="none" 
	d="
M244.531433,0.999999 
	C241.313126,5.345317 237.804291,9.858715 233.897720,13.996631 
	C228.006317,20.236959 221.849472,26.227354 215.777451,32.295975 
	C214.262787,33.809776 212.404602,35.037083 211.129349,36.718441 
	C209.594666,38.741879 207.290817,41.213573 207.469101,43.308296 
	C207.974136,49.242439 204.650864,50.472878 199.822174,50.637863 
	C199.211807,47.037636 198.857117,43.773689 198.484650,40.346123 
	C194.844742,43.386753 191.602005,46.095604 189.681351,47.700035 
	C190.042328,51.734291 190.322723,54.868069 190.250305,58.017929 
	C188.285706,58.356766 186.673935,58.679516 184.913834,58.637238 
	C183.969055,54.436146 184.243576,50.110573 180.089813,47.518002 
	C180.892105,45.881996 181.348770,44.318241 182.360611,43.313641 
	C190.749252,34.984970 199.399277,26.914257 207.644363,18.448141 
	C213.042953,12.904835 217.900253,6.834358 223.000000,0.999998 
	C230.020950,1.000000 237.041901,1.000000 244.531433,0.999999 
z"/>
<path fill="#695A98" opacity="1.000000" stroke="none" 
	d="
M125.848610,48.406590 
	C127.418495,45.918571 128.610016,43.060627 130.620941,41.003819 
	C141.909210,29.457987 153.414047,18.124182 164.790283,6.663740 
	C166.289902,5.153028 167.477051,3.332154 168.904465,1.327466 
	C175.021149,1.000000 181.042297,1.000000 187.491867,1.355866 
	C186.661148,3.593169 185.662750,5.731814 184.101135,7.314888 
	C172.825455,18.745426 161.398743,30.026968 150.122284,41.456753 
	C148.431732,43.170292 147.275833,45.411308 145.513947,47.434486 
	C143.764648,47.625458 142.374008,47.790260 140.602722,47.933239 
	C133.794479,49.868923 132.842712,51.507671 134.893219,57.067368 
	C132.364105,58.949860 130.021835,60.529892 127.413406,61.924900 
	C124.967682,59.512024 122.636086,57.407162 120.684532,54.994843 
	C119.920387,54.050293 119.370964,52.020218 119.879051,51.201477 
	C120.445602,50.288506 122.326286,50.191044 123.422409,49.812099 
	C124.008568,52.014938 124.381981,53.418243 124.755394,54.821548 
	C125.638733,54.573902 127.269714,54.355080 127.280563,54.073795 
	C127.338455,52.572342 127.046143,51.044399 126.749535,49.550518 
	C126.665314,49.126305 126.160522,48.785595 125.848610,48.406590 
z"/>
<path fill="#4349C0" opacity="1.000000" stroke="none" 
	d="
M356.000000,0.999997 
	C362.333588,1.000000 368.667175,1.000000 375.000000,1.000000 
	C375.000000,3.081965 375.000000,5.043078 374.672546,7.597604 
	C372.792114,9.398701 371.097229,10.463066 369.709198,11.837303 
	C360.641968,20.814539 351.598083,29.816353 342.638977,38.901279 
	C338.811218,42.782795 335.205627,46.883400 331.296539,50.584866 
	C327.958405,45.393627 323.998474,47.919994 319.812622,49.057011 
	C318.676788,49.025436 317.919403,49.010521 316.840881,48.891773 
	C315.681030,48.469044 314.842346,48.150146 314.045898,47.486008 
	C315.387512,45.264874 316.445496,43.150646 318.024902,41.551254 
	C329.378632,30.053659 340.889008,18.710411 352.208008,7.179155 
	C353.857941,5.498284 354.754700,3.078089 356.000000,0.999997 
z"/>
<path fill="#4A4CB8" opacity="1.000000" stroke="none" 
	d="
M248.000000,99.999992 
	C238.312439,100.000000 228.624878,100.000000 218.564026,99.672470 
	C222.323013,94.867073 226.488632,90.419395 230.576828,85.901657 
	C233.769363,82.373657 236.865768,78.758667 240.447876,75.170792 
	C244.298813,74.439995 247.706741,73.720741 251.446472,72.894836 
	C252.709625,71.896332 253.766708,71.102356 254.550491,70.095612 
	C257.847198,65.861122 260.902496,61.423691 264.422272,57.388615 
	C265.276672,56.409100 267.562592,56.678257 269.188812,56.758175 
	C267.015686,63.638111 269.700531,68.781960 273.422607,73.751144 
	C266.078430,80.788696 259.013184,87.571510 252.083755,94.490364 
	C250.483826,96.087860 249.348892,98.151085 248.000000,99.999992 
z"/>
<path fill="#484CBC" opacity="1.000000" stroke="none" 
	d="
M355.532043,0.999997 
	C354.754700,3.078089 353.857941,5.498284 352.208008,7.179155 
	C340.889008,18.710411 329.378632,30.053659 318.024902,41.551254 
	C316.445496,43.150646 315.387512,45.264874 313.678589,47.543556 
	C305.045654,46.435036 299.243164,51.010078 296.347992,61.002064 
	C295.259674,61.000134 294.534119,60.998035 293.732178,60.554573 
	C293.259949,55.797997 292.864105,51.482788 292.787872,46.990707 
	C293.774963,46.319500 294.514740,45.898224 295.099274,45.320026 
	C306.222107,34.318024 317.397400,23.367464 328.393341,12.239752 
	C331.848541,8.743143 334.811676,4.760302 338.000000,1.000005 
	C343.688049,1.000000 349.376068,1.000000 355.532043,0.999997 
z"/>
<path fill="#3F48C6" opacity="1.000000" stroke="none" 
	d="
M331.499084,50.884453 
	C335.205627,46.883400 338.811218,42.782795 342.638977,38.901279 
	C351.598083,29.816353 360.641968,20.814539 369.709198,11.837303 
	C371.097229,10.463066 372.792114,9.398701 374.672546,8.095509 
	C375.000000,16.020901 375.000000,24.041801 375.000000,32.531349 
	C373.275574,34.224030 371.356598,35.248470 369.860535,36.706783 
	C363.467407,42.938564 357.259491,49.360886 350.839752,55.564400 
	C349.367035,56.987526 347.322144,57.818588 345.126160,58.507908 
	C344.724426,55.266281 344.931000,52.417362 344.621277,49.625713 
	C344.537842,48.873604 342.886627,48.295425 341.955078,47.637405 
	C341.490936,48.535580 340.672424,49.424206 340.647888,50.334213 
	C340.613281,51.618916 341.356018,52.908039 341.434387,54.215183 
	C341.761047,59.663639 341.695526,65.030388 337.316437,68.943336 
	C336.635773,68.970596 335.955139,68.997856 335.274506,69.025116 
	C334.016022,62.978230 332.757568,56.931339 331.499084,50.884453 
z"/>
<path fill="#3F48C5" opacity="1.000000" stroke="none" 
	d="
M330.545258,74.717575 
	C323.182159,81.862038 315.792542,88.979660 308.495728,96.191185 
	C307.740753,96.937340 307.538177,98.242416 307.039612,99.644073 
	C297.645782,100.000000 288.291534,100.000000 278.564056,99.672478 
	C279.636536,97.553726 280.969238,95.655312 282.547791,93.989967 
	C289.049866,87.130394 295.626648,80.341599 302.522186,73.671104 
	C308.884094,76.314499 313.399109,75.813751 316.604675,72.291260 
	C314.737671,71.848991 312.870453,71.407455 311.098083,70.640205 
	C315.411835,66.546036 319.630737,62.777584 323.949463,59.417023 
	C324.355042,65.600266 326.523010,70.563324 330.545258,74.717575 
z"/>
<path fill="#4B4CB8" opacity="1.000000" stroke="none" 
	d="
M337.531433,1.000005 
	C334.811676,4.760302 331.848541,8.743143 328.393341,12.239752 
	C317.397400,23.367464 306.222107,34.318024 295.099274,45.320026 
	C294.514740,45.898224 293.774963,46.319500 292.640137,46.677734 
	C290.947662,41.217449 287.900299,37.234570 283.255829,34.427254 
	C294.106842,23.503139 304.957825,12.579021 315.904419,1.327451 
	C323.020966,1.000000 330.041901,1.000000 337.531433,1.000005 
z"/>
<path fill="#454ABF" opacity="1.000000" stroke="none" 
	d="
M302.175934,73.526779 
	C295.626648,80.341599 289.049866,87.130394 282.547791,93.989967 
	C280.969238,95.655312 279.636536,97.553726 278.095398,99.672478 
	C268.312439,100.000000 258.624878,100.000000 248.468658,99.999992 
	C249.348892,98.151085 250.483826,96.087860 252.083755,94.490364 
	C259.013184,87.571510 266.078430,80.788696 273.773132,73.890472 
	C283.892151,77.342186 289.899506,74.380302 292.727722,64.808151 
	C293.101959,63.541538 293.448944,62.266872 293.808533,60.995937 
	C294.534119,60.998035 295.259674,61.000134 296.416992,61.422150 
	C296.234375,66.826645 298.985809,70.276718 302.175934,73.526779 
z"/>
<path fill="#65579C" opacity="1.000000" stroke="none" 
	d="
M145.872604,47.408318 
	C147.275833,45.411308 148.431732,43.170292 150.122284,41.456753 
	C161.398743,30.026968 172.825455,18.745426 184.101135,7.314888 
	C185.662750,5.731814 186.661148,3.593169 187.960144,1.355866 
	C193.354935,1.000000 198.709854,1.000000 204.492645,1.355889 
	C203.656754,3.597936 202.653778,5.741347 201.087524,7.329070 
	C189.779434,18.792057 178.325821,30.111420 167.007523,41.564468 
	C165.423416,43.167446 164.326202,45.251621 162.767456,47.311195 
	C161.375885,48.539158 160.220459,49.568985 158.967636,50.947334 
	C157.277725,52.529545 155.685196,53.763233 153.990143,54.650379 
	C153.100342,49.815010 149.532532,48.558132 145.872604,47.408318 
z"/>
<path fill="#62569F" opacity="1.000000" stroke="none" 
	d="
M163.003616,47.113056 
	C164.326202,45.251621 165.423416,43.167446 167.007523,41.564468 
	C178.325821,30.111420 189.779434,18.792057 201.087524,7.329070 
	C202.653778,5.741347 203.656754,3.597936 204.960236,1.355889 
	C210.688034,1.000000 216.376083,1.000000 222.532059,0.999998 
	C217.900253,6.834358 213.042953,12.904835 207.644363,18.448141 
	C199.399277,26.914257 190.749252,34.984970 182.360611,43.313641 
	C181.348770,44.318241 180.892105,45.881996 179.733917,47.566742 
	C176.541000,48.843861 173.792297,49.740833 170.653412,50.646263 
	C167.843353,49.474167 165.423492,48.293613 163.003616,47.113056 
z"/>
<path fill="#65589D" opacity="1.000000" stroke="none" 
	d="
M127.679558,62.109924 
	C130.021835,60.529892 132.364105,58.949860 135.264160,57.154442 
	C141.717850,57.416882 139.454651,54.209820 137.673294,51.148422 
	C139.837173,51.024921 141.428787,50.934078 143.338852,50.995747 
	C144.365356,51.762356 145.073380,52.376453 145.599915,53.301361 
	C145.346405,54.076149 145.274399,54.540119 145.089417,55.298393 
	C144.675232,56.141533 144.374023,56.690372 143.716461,57.282104 
	C141.668350,58.213150 140.068085,59.459053 138.266983,59.919567 
	C133.632584,61.104534 131.168640,64.443039 131.450195,68.622391 
	C131.756012,73.162239 134.969193,75.883423 139.956863,75.722122 
	C138.933029,77.540741 138.157654,79.220993 136.945694,80.481430 
	C132.486893,85.118652 127.776398,89.517082 123.393539,94.222336 
	C121.907509,95.817680 121.111389,98.055679 120.000000,100.000000 
	C110.979103,100.000000 101.958214,100.000000 92.564331,99.666626 
	C99.969238,91.133606 107.747131,82.933960 115.868820,74.791077 
	C127.333008,76.190361 131.510300,71.550079 127.679558,62.109924 
z"/>
<path fill="#7B6185" opacity="1.000000" stroke="none" 
	d="
M9.999998,100.000000 
	C7.049745,100.000000 4.099490,100.000000 1.000000,100.000000 
	C1.000000,94.313728 1.000000,88.626572 1.327473,82.374176 
	C3.325618,80.483643 5.137233,79.300758 6.643844,77.809700 
	C15.715765,68.831436 24.686722,59.751057 33.774036,50.788567 
	C35.269287,49.313854 37.172585,48.252869 39.020325,47.333275 
	C39.945671,49.618584 40.737995,51.571297 41.557533,53.591087 
	C37.686760,54.555244 34.276272,55.943024 35.108181,61.312721 
	C33.412476,62.520485 31.905767,63.431805 30.298101,64.404190 
	C33.194103,64.651802 35.594322,64.857025 37.999184,65.029922 
	C38.003822,64.997612 37.940498,64.981697 37.881508,65.281769 
	C37.865334,65.781174 37.908157,65.980499 37.854652,66.495102 
	C36.189102,68.695198 34.565514,70.537888 33.063839,72.475067 
	C30.989710,75.150719 29.007492,77.897606 26.590252,80.657440 
	C25.805019,78.796829 25.415445,76.892754 25.178228,74.757439 
	C26.450676,71.902908 27.570768,69.279625 28.690861,66.656342 
	C28.125410,66.426857 27.559958,66.197372 26.994507,65.967896 
	C25.701855,69.079971 24.409204,72.192055 23.127077,75.709930 
	C23.154938,78.268066 23.172276,80.420410 23.127014,82.954849 
	C21.643108,85.457535 20.361223,87.689949 18.769831,89.674126 
	C15.945553,93.195488 12.933494,96.566238 9.999998,100.000000 
z"/>
<path fill="#80637F" opacity="1.000000" stroke="none" 
	d="
M56.000000,1.000001 
	C61.022091,1.000000 66.044182,1.000000 71.437889,1.327585 
	C67.462677,6.347843 63.022850,10.959311 58.817425,15.775454 
	C57.260506,17.558474 56.254402,19.822456 54.617966,21.917286 
	C47.261131,21.443031 41.980953,24.309412 38.022148,30.374100 
	C37.719040,32.142853 37.524296,33.569199 36.979050,35.078964 
	C34.923752,36.436901 33.045277,37.535133 31.543007,39.015217 
	C23.265657,47.170326 15.142691,55.483047 6.807680,63.577904 
	C5.241339,65.099113 2.954408,65.878365 1.000000,67.000000 
	C1.000000,63.638714 1.000000,60.277424 1.355893,56.418312 
	C3.595104,54.659599 5.738394,53.661541 7.320756,52.096390 
	C20.387108,39.172157 33.439137,26.230452 46.285770,13.089011 
	C49.882397,9.409847 52.781132,5.048448 56.000000,1.000001 
z"/>
<path fill="#695997" opacity="1.000000" stroke="none" 
	d="
M115.525032,74.734306 
	C107.747131,82.933960 99.969238,91.133606 92.095673,99.666626 
	C83.312439,100.000000 74.624870,100.000000 65.553253,99.661652 
	C67.776749,96.215439 70.384308,93.107574 73.387390,90.091858 
	C77.647545,91.204361 81.525146,92.354729 85.212662,88.839279 
	C86.962151,86.133591 88.458946,83.657097 90.339867,81.107986 
	C91.149567,79.357018 91.575142,77.678665 92.000710,76.000305 
	C95.465080,73.035576 98.961235,70.106995 102.384743,67.095810 
	C105.703636,64.176659 108.947884,61.172623 112.708664,58.409252 
	C114.981293,60.746727 117.000732,62.734940 118.476349,65.067230 
	C119.427734,66.570961 120.068085,68.637291 119.866646,70.335060 
	C119.778900,71.074524 117.242714,71.557121 115.792809,72.085930 
	C115.149963,72.320389 114.443398,72.380142 112.968468,72.682816 
	C114.244057,73.706398 114.884544,74.220352 115.525032,74.734306 
z"/>
<path fill="#6056A4" opacity="1.000000" stroke="none" 
	d="
M120.468651,100.000000 
	C121.111389,98.055679 121.907509,95.817680 123.393539,94.222336 
	C127.776398,89.517082 132.486893,85.118652 136.945694,80.481430 
	C138.157654,79.220993 138.933029,77.540741 140.319031,75.597260 
	C142.156342,74.133316 143.583374,73.125267 145.397858,72.263199 
	C148.880524,76.033066 152.185455,76.268898 155.188675,73.713684 
	C154.757614,71.083595 154.423233,69.043404 154.431732,66.913696 
	C156.815903,66.217323 158.857224,65.610458 160.979309,65.436752 
	C161.592819,69.853523 159.056839,75.683304 166.729950,75.722977 
	C164.802963,78.557449 163.041519,81.135864 160.990616,83.458710 
	C156.066025,89.036293 151.005600,94.493950 146.000000,100.000000 
	C137.645767,100.000000 129.291534,100.000000 120.468651,100.000000 
z"/>
<path fill="#3443CF" opacity="1.000000" stroke="none" 
	d="
M331.468384,100.000000 
	C331.882660,98.619476 332.552765,97.028183 333.680603,95.890778 
	C345.988678,83.478462 358.356079,71.124825 370.750732,58.798866 
	C371.787750,57.767597 373.139526,57.052822 374.672546,56.095505 
	C375.000000,62.354397 375.000000,68.708794 374.672546,75.627136 
	C368.483612,81.707123 362.537720,87.137367 356.803833,92.782959 
	C354.618805,94.934326 352.920258,97.579750 351.000000,100.000000 
	C344.645599,100.000000 338.291199,100.000000 331.468384,100.000000 
z"/>
<path fill="#5150B2" opacity="1.000000" stroke="none" 
	d="
M240.004898,75.182335 
	C236.865768,78.758667 233.769363,82.373657 230.576828,85.901657 
	C226.488632,90.419395 222.323013,94.867073 218.095367,99.672470 
	C210.312424,100.000000 202.624832,100.000000 194.564209,99.672546 
	C197.610977,95.579849 201.034119,91.817596 204.449753,88.048561 
	C208.303177,83.796471 212.149872,79.538300 216.440414,75.258629 
	C219.454254,74.902122 222.187073,75.001503 224.557800,74.123352 
	C227.256897,73.123573 225.684753,72.147156 224.003113,71.606674 
	C226.146896,69.131592 228.290665,66.656502 230.794617,64.468109 
	C232.067673,69.959625 235.472519,73.049454 240.004898,75.182335 
z"/>
<path fill="#82637C" opacity="1.000000" stroke="none" 
	d="
M55.536816,1.000001 
	C52.781132,5.048448 49.882397,9.409847 46.285770,13.089011 
	C33.439137,26.230452 20.387108,39.172157 7.320756,52.096390 
	C5.738394,53.661541 3.595104,54.659599 1.355893,55.960243 
	C1.000000,51.975456 1.000000,47.950912 1.355891,43.423416 
	C3.358419,41.895542 5.264374,41.133339 6.610836,39.804302 
	C17.799231,28.760717 28.929211,17.656569 39.944977,6.441200 
	C41.351727,5.008961 42.000229,2.831971 43.000000,1.000000 
	C47.024544,1.000000 51.049088,1.000000 55.536816,1.000001 
z"/>
<path fill="#7F6485" opacity="1.000000" stroke="none" 
	d="
M54.997093,21.867090 
	C56.254402,19.822456 57.260506,17.558474 58.817425,15.775454 
	C63.022850,10.959311 67.462677,6.347843 71.904755,1.327585 
	C76.689255,1.000000 81.378510,1.000000 86.437912,1.327383 
	C81.258926,7.548935 75.601166,13.346100 70.210983,19.382206 
	C67.861778,22.012924 66.061386,25.133720 64.131096,28.390190 
	C64.703941,31.182255 65.157448,33.616070 65.610954,36.049885 
	C63.725697,36.354996 61.845016,36.693699 59.953281,36.951229 
	C58.988525,37.082569 58.003929,37.068176 56.658978,37.109070 
	C54.182430,37.548912 52.075207,37.999340 49.641342,38.311234 
	C47.653698,38.127171 45.992687,38.081635 44.045944,37.727020 
	C38.940987,37.493740 38.492981,36.675007 39.963627,29.864271 
	C45.266388,25.055956 50.998821,22.507696 58.118347,23.969158 
	C58.229153,23.926208 58.154877,24.295921 58.154877,24.295921 
	C58.154877,24.295921 58.063625,23.997110 57.803902,23.809992 
	C56.695152,23.037613 55.846123,22.452351 54.997093,21.867090 
z"/>
<path fill="#796086" opacity="1.000000" stroke="none" 
	d="
M64.011749,28.031946 
	C66.061386,25.133720 67.861778,22.012924 70.210983,19.382206 
	C75.601166,13.346100 81.258926,7.548935 86.904022,1.327383 
	C93.021156,1.000000 99.042305,1.000000 105.531731,1.000000 
	C103.770508,4.045093 101.866653,7.409024 99.253242,10.078223 
	C89.657219,19.879103 79.825554,29.449270 69.613419,39.039413 
	C68.630852,37.042442 68.122360,35.111004 67.602722,33.182564 
	C67.024414,31.036428 67.926338,27.853508 64.011749,28.031946 
z"/>
<path fill="#5A54A8" opacity="1.000000" stroke="none" 
	d="
M146.468414,100.000000 
	C151.005600,94.493950 156.066025,89.036293 160.990616,83.458710 
	C163.041519,81.135864 164.802963,78.557449 166.988800,75.613251 
	C168.060669,74.376381 168.839737,73.621498 170.053070,72.809219 
	C172.228668,72.475586 173.969986,72.199348 175.721359,72.315216 
	C174.740646,74.738976 173.749847,76.770622 172.683243,78.957764 
	C177.073318,79.615044 180.288223,76.886772 181.746628,73.293411 
	C183.562927,68.818314 184.018814,63.791077 185.062164,59.002270 
	C186.673935,58.679516 188.285706,58.356766 190.338745,58.475670 
	C191.277222,63.911739 191.774445,68.906151 191.926590,74.001541 
	C184.279297,81.009964 176.929550,87.868416 169.713806,94.865059 
	C168.220337,96.313171 167.224945,98.274963 166.000000,100.000000 
	C159.645599,100.000000 153.291214,100.000000 146.468414,100.000000 
z"/>
<path fill="#7E6281" opacity="1.000000" stroke="none" 
	d="
M1.000000,67.466118 
	C2.954408,65.878365 5.241339,65.099113 6.807680,63.577904 
	C15.142691,55.483047 23.265657,47.170326 31.543007,39.015217 
	C33.045277,37.535133 34.923752,36.436901 37.084499,35.448708 
	C37.024593,36.838593 36.508736,37.942154 36.026985,39.445984 
	C36.466560,41.451714 36.872025,43.057178 37.528450,44.736282 
	C38.148705,45.540173 38.518002,46.270424 38.887302,47.000679 
	C37.172585,48.252869 35.269287,49.313854 33.774036,50.788567 
	C24.686722,59.751057 15.715765,68.831436 6.643844,77.809700 
	C5.137233,79.300758 3.325618,80.483643 1.327473,81.904465 
	C1.000000,77.310745 1.000000,72.621490 1.000000,67.466118 
z"/>
<path fill="#745D8B" opacity="1.000000" stroke="none" 
	d="
M10.468655,100.000000 
	C12.933494,96.566238 15.945553,93.195488 18.769831,89.674126 
	C20.361223,87.689949 21.643108,85.457535 23.583233,82.948349 
	C33.067955,82.661919 42.033867,82.764099 50.909859,83.203285 
	C48.124050,86.616135 45.311459,89.599380 42.772038,92.799400 
	C40.988670,95.046692 39.577419,97.589279 38.000000,100.000000 
	C28.979103,100.000000 19.958208,100.000000 10.468655,100.000000 
z"/>
<path fill="#5450AD" opacity="1.000000" stroke="none" 
	d="
M215.999466,75.282761 
	C212.149872,79.538300 208.303177,83.796471 204.449753,88.048561 
	C201.034119,91.817596 197.610977,95.579849 194.095581,99.672546 
	C189.310745,100.000000 184.621490,100.000000 179.561768,99.666656 
	C183.990662,93.984222 188.886444,88.717270 193.545288,83.248474 
	C195.611908,80.822548 197.199768,77.988754 199.309464,75.207458 
	C200.729309,74.080452 201.844635,73.086090 202.959961,72.091728 
	C203.584732,71.129189 204.209488,70.166641 205.388214,68.912125 
	C209.294601,70.841019 212.647034,73.061890 215.999466,75.282761 
z"/>
<path fill="#856479" opacity="1.000000" stroke="none" 
	d="
M42.545891,1.000000 
	C42.000229,2.831971 41.351727,5.008961 39.944977,6.441200 
	C28.929211,17.656569 17.799231,28.760717 6.610836,39.804302 
	C5.264374,41.133339 3.358419,41.895542 1.355891,42.960232 
	C1.000000,39.969406 1.000000,36.938812 1.327465,33.358562 
	C11.939195,22.676908 22.227640,12.549134 32.488190,2.393176 
	C32.806549,2.078063 32.835907,1.470970 33.000000,1.000000 
	C36.030594,1.000000 39.061188,1.000000 42.545891,1.000000 
z"/>
<path fill="#705C91" opacity="1.000000" stroke="none" 
	d="
M38.468651,100.000000 
	C39.577419,97.589279 40.988670,95.046692 42.772038,92.799400 
	C45.311459,89.599380 48.124050,86.616135 51.365829,83.093140 
	C56.951351,82.681084 61.990997,82.716187 67.200562,83.052513 
	C69.244278,85.569061 71.118080,87.784393 72.991867,89.999710 
	C70.384308,93.107574 67.776749,96.215439 65.084595,99.661652 
	C56.312435,100.000000 47.624874,100.000000 38.468651,100.000000 
z"/>
<path fill="#3141D3" opacity="1.000000" stroke="none" 
	d="
M351.468689,100.000000 
	C352.920258,97.579750 354.618805,94.934326 356.803833,92.782959 
	C362.537720,87.137367 368.483612,81.707123 374.672546,76.095535 
	C375.000000,83.926338 375.000000,91.852669 375.000000,100.000000 
	C367.313873,100.000000 359.625610,100.000000 351.468689,100.000000 
z"/>
<path fill="#5752AB" opacity="1.000000" stroke="none" 
	d="
M199.004944,75.340103 
	C197.199768,77.988754 195.611908,80.822548 193.545288,83.248474 
	C188.886444,88.717270 183.990662,93.984222 179.095642,99.666656 
	C174.975449,100.000000 170.950912,100.000000 166.463181,100.000000 
	C167.224945,98.274963 168.220337,96.313171 169.713806,94.865059 
	C176.929550,87.868416 184.279297,81.009964 192.271484,74.165970 
	C194.975937,74.599640 196.990448,74.969872 199.004944,75.340103 
z"/>
<path fill="#876577" opacity="1.000000" stroke="none" 
	d="
M32.541931,1.000000 
	C32.835907,1.470970 32.806549,2.078063 32.488190,2.393176 
	C22.227640,12.549134 11.939195,22.676908 1.327465,32.904453 
	C1.000000,29.307091 1.000000,25.614182 1.355892,21.420876 
	C8.474522,14.280321 15.237261,7.640160 22.000000,1.000000 
	C25.361288,1.000000 28.722574,1.000000 32.541931,1.000000 
z"/>
<path fill="#896674" opacity="1.000000" stroke="none" 
	d="
M21.531088,1.000000 
	C15.237261,7.640160 8.474522,14.280321 1.355892,20.960239 
	C1.000000,14.405403 1.000000,7.810807 1.000000,1.000000 
	C7.685847,1.000000 14.374011,1.000000 21.531088,1.000000 
z"/>
<path fill="#756398" opacity="1.000000" stroke="none" 
	d="
M89.955734,81.180595 
	C88.458946,83.657097 86.962151,86.133591 84.787552,88.691971 
	C77.027306,89.673622 71.114174,88.302788 68.380997,80.426041 
	C68.358795,79.457359 68.370399,78.753983 68.382004,78.050606 
	C72.418571,76.121216 76.455147,74.191826 80.722870,72.538261 
	C79.230774,76.436867 77.507523,80.059647 75.784264,83.682426 
	C76.262047,83.911674 76.739830,84.140915 77.217613,84.370163 
	C78.939964,80.862473 80.704361,77.373741 82.310257,73.813522 
	C82.448883,73.506180 81.538979,72.725883 81.116142,72.165283 
	C79.363014,69.963226 77.609894,67.761177 75.291542,64.849152 
	C78.563255,65.250977 81.383057,65.597305 84.602890,65.969398 
	C85.007751,66.329308 85.012566,66.663445 84.869400,67.498718 
	C85.160843,68.320312 85.600266,68.640778 86.039680,68.961235 
	C86.039680,68.961235 86.001656,69.000076 86.047028,69.332268 
	C89.583923,72.763878 90.491417,76.730164 89.955734,81.180595 
z"/>
<path fill="#7E678F" opacity="1.000000" stroke="none" 
	d="
M26.985912,80.613983 
	C29.007492,77.897606 30.989710,75.150719 33.063839,72.475067 
	C34.565514,70.537888 36.189102,68.695198 38.136467,66.511673 
	C38.692291,66.150978 38.869980,66.088982 39.018768,66.020195 
	C38.989868,66.013397 38.946842,65.972481 39.056103,66.354897 
	C39.796612,66.825806 40.427860,66.914299 41.027054,66.991638 
	C40.995003,66.980476 40.948799,66.930756 40.796120,67.285431 
	C42.411247,69.405014 45.989250,72.080948 45.637794,72.779289 
	C43.996246,76.041031 46.580608,76.619400 47.994129,78.020195 
	C48.005959,78.668213 48.017788,79.316238 47.559143,80.373825 
	C40.387753,80.726921 33.686832,80.670448 26.985912,80.613983 
z"/>
<path fill="#F8F7F9" opacity="1.000000" stroke="none" 
	d="
M26.590252,80.657440 
	C33.686832,80.670448 40.387753,80.726921 47.550991,80.697800 
	C53.938004,80.612198 59.862701,80.612198 65.878258,80.612198 
	C66.578911,77.817566 67.263863,75.085564 67.948807,72.353561 
	C68.324692,72.437614 68.700584,72.521660 69.076469,72.605713 
	C68.813492,74.145897 68.550514,75.686089 68.334778,77.638443 
	C68.370399,78.753983 68.358795,79.457359 68.222610,80.693764 
	C67.742233,81.734955 67.386436,82.243126 67.030640,82.751289 
	C61.990997,82.716187 56.951351,82.681084 51.455742,82.756134 
	C42.033867,82.764099 33.067955,82.661919 23.645828,82.566246 
	C23.172276,80.420410 23.154938,78.268066 23.436726,75.608627 
	C24.165859,75.063904 24.595865,75.026291 25.025873,74.988686 
	C25.415445,76.892754 25.805019,78.796829 26.590252,80.657440 
z"/>
<path fill="#776291" opacity="1.000000" stroke="none" 
	d="
M55.788628,75.011360 
	C53.767200,75.986832 51.745773,76.962303 49.514320,77.646706 
	C49.487209,76.909843 49.931744,76.375023 49.814774,76.031281 
	C46.906376,67.484619 47.231361,66.988647 56.095840,67.333679 
	C60.057396,70.349380 55.862827,72.528496 55.788628,75.011360 
z"/>
<path fill="#EFECF1" opacity="1.000000" stroke="none" 
	d="
M55.855721,67.080643 
	C47.231361,66.988647 46.906376,67.484619 49.814774,76.031281 
	C49.931744,76.375023 49.487209,76.909843 49.167850,77.683640 
	C48.858593,78.020424 48.685780,78.029213 48.253548,78.029099 
	C46.580608,76.619400 43.996246,76.041031 45.637794,72.779289 
	C45.989250,72.080948 42.411247,69.405014 41.181999,67.267303 
	C43.489861,67.108688 45.259167,67.322876 47.028473,67.537064 
	C47.032158,66.364998 47.035847,65.192932 47.278206,63.993816 
	C47.516880,63.966766 47.968372,63.802616 47.968372,63.802616 
	C50.589382,64.035835 53.210396,64.269058 56.196106,64.714661 
	C56.325779,65.644920 56.090748,66.362778 55.855721,67.080643 
z"/>
<path fill="#E8E4EC" opacity="1.000000" stroke="none" 
	d="
M56.095840,67.333679 
	C56.090748,66.362778 56.325779,65.644920 56.580235,64.546127 
	C56.599663,64.165207 56.636688,64.093529 56.919510,64.330139 
	C57.374958,64.702217 57.547588,64.837685 57.720215,64.973152 
	C57.568207,68.600029 60.095890,67.907532 62.644623,67.840897 
	C63.024097,67.889015 63.170158,67.951477 63.170158,67.951477 
	C62.125999,68.917114 61.081844,69.882759 60.838932,70.107407 
	C60.684544,72.810204 60.575909,74.712036 60.467278,76.613869 
	C59.023270,76.301033 57.579266,75.988190 55.961945,75.343353 
	C55.862827,72.528496 60.057396,70.349380 56.095840,67.333679 
z"/>
<path fill="#7E6994" opacity="1.000000" stroke="none" 
	d="
M67.004593,54.998306 
	C67.869751,55.535141 68.734901,56.071980 69.841270,56.806755 
	C67.133659,58.563641 64.184830,60.122585 60.968193,61.335014 
	C61.070709,59.419327 61.441029,57.850163 61.721409,56.662098 
	C63.721439,56.032246 65.363014,55.515278 67.004593,54.998306 
z"/>
<path fill="#ECE9EF" opacity="1.000000" stroke="none" 
	d="
M66.693993,54.912491 
	C65.363014,55.515278 63.721439,56.032246 61.721409,56.662098 
	C61.441029,57.850163 61.070709,59.419327 60.590977,61.375893 
	C60.239964,62.143162 59.998367,62.523029 59.222389,62.980301 
	C58.462162,63.038673 58.236317,63.019638 58.010475,63.000599 
	C58.570499,61.563160 59.130527,60.125721 59.713158,58.116409 
	C59.358707,57.635681 58.981651,57.726826 58.604599,57.817970 
	C58.344410,57.228149 57.710068,56.288666 57.882999,56.103619 
	C59.315792,54.570484 60.897861,53.176868 62.922958,51.722111 
	C63.587147,51.810635 63.763157,51.918102 63.939163,52.025566 
	C64.753906,52.959267 65.568649,53.892967 66.693993,54.912491 
z"/>
<path fill="#7E6994" opacity="1.000000" stroke="none" 
	d="
M63.055874,67.816223 
	C64.362946,66.127510 65.638237,64.511597 66.913536,62.895687 
	C67.472565,63.470066 68.031593,64.044441 68.590614,64.618820 
	C67.013336,65.717049 65.436050,66.815277 63.514462,67.932495 
	C63.170158,67.951477 63.024097,67.889015 63.055874,67.816223 
z"/>
<path fill="#776291" opacity="1.000000" stroke="none" 
	d="
M72.987976,63.789352 
	C72.899963,64.147728 72.705688,64.460548 72.429222,64.658691 
	C72.366249,64.703819 72.019005,64.352287 71.802597,64.183327 
	C72.152367,64.022957 72.502136,63.862587 72.987976,63.789352 
z"/>
<path fill="#776291" opacity="1.000000" stroke="none" 
	d="
M69.506882,69.502930 
	C69.487480,69.509361 69.526283,69.496498 69.506882,69.502930 
z"/>
<path fill="#EFECF1" opacity="1.000000" stroke="none" 
	d="
M57.924950,64.766663 
	C57.547588,64.837685 57.374958,64.702217 56.955894,64.347549 
	C57.027481,63.944214 57.345501,63.760086 57.856335,63.780083 
	C58.075996,64.176201 58.102844,64.368187 57.924950,64.766663 
z"/>
<path fill="#EFECF1" opacity="1.000000" stroke="none" 
	d="
M57.848160,63.258606 
	C58.236317,63.019638 58.462162,63.038673 59.026722,63.093719 
	C59.109768,63.455067 58.854103,63.780407 58.283676,64.081146 
	C57.874565,63.876572 57.780205,63.696594 57.848160,63.258606 
z"/>
<path fill="#F6F5F9" opacity="1.000000" stroke="none" 
	d="
M115.868820,74.791061 
	C114.884544,74.220352 114.244057,73.706398 112.968468,72.682816 
	C114.443398,72.380142 115.149963,72.320389 115.792809,72.085930 
	C117.242714,71.557121 119.778900,71.074524 119.866646,70.335060 
	C120.068085,68.637291 119.427734,66.570961 118.476349,65.067230 
	C117.000732,62.734940 114.981293,60.746727 113.025909,58.307911 
	C110.761490,49.577969 115.719292,45.598202 125.477112,48.289703 
	C126.160522,48.785595 126.665314,49.126305 126.749535,49.550518 
	C127.046143,51.044399 127.338455,52.572342 127.280563,54.073795 
	C127.269714,54.355080 125.638733,54.573902 124.755394,54.821548 
	C124.381981,53.418243 124.008568,52.014938 123.422409,49.812099 
	C122.326286,50.191044 120.445602,50.288506 119.879051,51.201477 
	C119.370964,52.020218 119.920387,54.050293 120.684532,54.994843 
	C122.636086,57.407162 124.967682,59.512024 127.413406,61.924900 
	C131.510300,71.550079 127.333008,76.190361 115.868820,74.791061 
z"/>
<path fill="#DEDAE7" opacity="1.000000" stroke="none" 
	d="
M90.339867,81.107986 
	C90.491417,76.730164 89.583923,72.763878 86.057083,69.307068 
	C87.888062,71.101585 89.754372,73.253487 91.810699,75.702850 
	C91.575142,77.678665 91.149567,79.357018 90.339867,81.107986 
z"/>
<path fill="#DEDAE7" opacity="1.000000" stroke="none" 
	d="
M86.143867,68.603302 
	C85.600266,68.640778 85.160843,68.320312 84.859940,67.749130 
	C85.414993,67.747391 85.831520,67.996376 86.143867,68.603302 
z"/>
<path fill="#F6F6FB" opacity="1.000000" stroke="none" 
	d="
M216.440414,75.258621 
	C212.647034,73.061890 209.294601,70.841019 205.560150,68.613632 
	C205.702530,66.852211 206.709778,65.087067 206.672852,63.344051 
	C206.435699,52.151436 214.257034,45.660202 225.425903,48.415283 
	C226.451035,50.375118 228.090988,53.448078 227.598297,53.839993 
	C224.964676,55.934917 221.798523,57.360386 218.573944,58.662933 
	C219.027466,57.899235 220.171356,57.619293 220.334106,57.055923 
	C220.790222,55.476925 221.116516,53.747383 220.921432,52.147030 
	C220.839417,51.474270 218.758926,50.324142 218.542969,50.508842 
	C217.374969,51.507812 215.870193,52.765816 215.678131,54.106022 
	C215.359146,56.331753 215.949844,58.687843 216.157364,60.989025 
	C214.928360,67.060364 216.945740,70.110962 223.645203,71.688644 
	C225.684753,72.147156 227.256897,73.123573 224.557800,74.123352 
	C222.187073,75.001503 219.454254,74.902122 216.440414,75.258621 
z"/>
<path fill="#F8F7FB" opacity="1.000000" stroke="none" 
	d="
M199.309464,75.207458 
	C196.990448,74.969872 194.975937,74.599640 192.616547,74.064987 
	C191.774445,68.906151 191.277222,63.911739 190.691559,58.459583 
	C190.322723,54.868069 190.042328,51.734291 189.681351,47.700035 
	C191.602005,46.095604 194.844742,43.386753 198.484650,40.346123 
	C198.857117,43.773689 199.211807,47.037636 199.451019,50.654289 
	C199.195618,56.791882 198.864670,62.583469 199.067215,68.356346 
	C199.110916,69.601814 201.077057,70.779839 202.558807,72.040329 
	C201.844635,73.086090 200.729309,74.080452 199.309464,75.207458 
z"/>
<path fill="#F3F4FB" opacity="1.000000" stroke="none" 
	d="
M330.860382,74.790726 
	C326.523010,70.563324 324.355042,65.600266 323.998444,59.019798 
	C322.695404,55.167675 321.443237,52.120674 320.191071,49.073669 
	C323.998474,47.919994 327.958405,45.393627 331.296539,50.584866 
	C332.757568,56.931339 334.016022,62.978230 335.274506,69.025116 
	C335.955139,68.997856 336.635773,68.970596 337.316437,68.943336 
	C341.695526,65.030388 341.761047,59.663639 341.434387,54.215183 
	C341.356018,52.908039 340.613281,51.618916 340.647888,50.334213 
	C340.672424,49.424206 341.490936,48.535580 341.955078,47.637405 
	C342.886627,48.295425 344.537842,48.873604 344.621277,49.625713 
	C344.931000,52.417362 344.724426,55.266281 344.757965,58.543266 
	C343.611450,62.579643 342.624695,66.252312 341.174042,69.731560 
	C339.351044,74.103928 336.037872,76.134163 330.860382,74.790726 
z"/>
<path fill="#F5F5FB" opacity="1.000000" stroke="none" 
	d="
M240.447876,75.170792 
	C235.472519,73.049454 232.067673,69.959625 231.129150,64.377045 
	C232.222549,52.154739 238.092606,46.481537 248.335281,47.720741 
	C254.288300,51.121101 254.379288,54.097534 248.986816,57.525642 
	C247.589523,58.413940 246.056824,59.086163 244.622375,59.919670 
	C239.036545,63.165386 238.892990,64.030823 243.502747,69.837296 
	C246.388153,71.230553 248.751419,72.116020 251.114685,73.001488 
	C247.706741,73.720741 244.298813,74.439995 240.447876,75.170792 
M242.204285,50.970932 
	C241.200348,53.514259 240.196411,56.057590 239.192474,58.600918 
	C239.860931,59.056679 240.529388,59.512440 241.197845,59.968201 
	C242.865097,58.240917 244.910294,56.710915 245.975800,54.669544 
	C246.307724,54.033600 243.989288,52.014282 242.204285,50.970932 
z"/>
<path fill="#6661B3" opacity="1.000000" stroke="none" 
	d="
M216.397079,61.050907 
	C215.949844,58.687843 215.359146,56.331753 215.678131,54.106022 
	C215.870193,52.765816 217.374969,51.507812 218.542969,50.508842 
	C218.758926,50.324142 220.839417,51.474270 220.921432,52.147030 
	C221.116516,53.747383 220.790222,55.476925 220.334106,57.055923 
	C220.171356,57.619293 219.027466,57.899235 218.181671,58.612629 
	C217.566895,59.648739 217.101837,60.380764 216.397079,61.050907 
z"/>
<path fill="#F5F6FB" opacity="1.000000" stroke="none" 
	d="
M293.732147,60.554573 
	C293.448944,62.266872 293.101959,63.541538 292.727722,64.808151 
	C289.899506,74.380302 283.892151,77.342186 274.101440,73.685211 
	C269.700531,68.781960 267.015686,63.638111 269.423279,56.496944 
	C272.282318,49.423351 276.907135,46.279011 284.028473,47.605835 
	C282.989807,39.595192 279.198975,36.124577 272.998901,37.086613 
	C272.203308,36.999836 271.407745,36.913055 270.168060,36.777840 
	C274.035492,33.065338 278.120178,32.801205 282.906586,34.357285 
	C287.900299,37.234570 290.947662,41.217449 292.320496,46.854607 
	C292.864105,51.482788 293.259949,55.797997 293.732147,60.554573 
M277.400940,64.983124 
	C277.535126,65.800705 277.465210,66.731514 277.843628,67.413612 
	C278.793488,69.125755 279.946075,70.725433 281.017365,72.370224 
	C282.306000,70.663719 284.432434,69.083015 284.711426,67.224907 
	C285.320343,63.170017 285.291107,58.943924 284.882477,54.851700 
	C284.735443,53.379486 282.751801,52.090683 281.606323,50.718189 
	C280.371765,52.048756 278.420013,53.208992 278.054962,54.746063 
	C277.339752,57.757458 277.508942,60.978901 277.400940,64.983124 
z"/>
<path fill="#5151B6" opacity="1.000000" stroke="none" 
	d="
M272.957153,37.436871 
	C279.198975,36.124577 282.989807,39.595192 284.028473,47.605835 
	C276.907135,46.279011 272.282318,49.423351 269.424744,56.112026 
	C267.562592,56.678257 265.276672,56.409100 264.422272,57.388615 
	C260.902496,61.423691 257.847198,65.861122 254.550491,70.095612 
	C253.766708,71.102356 252.709625,71.896332 251.446472,72.894836 
	C248.751419,72.116020 246.388153,71.230553 243.816803,70.080292 
	C251.986465,61.130379 260.408569,52.487251 268.704407,43.724560 
	C270.355927,41.980087 271.524231,39.778130 272.957153,37.436871 
z"/>
<path fill="#7D658B" opacity="1.000000" stroke="none" 
	d="
M47.039532,64.020866 
	C47.035847,65.192932 47.032158,66.364998 47.028473,67.537064 
	C45.259167,67.322876 43.489861,67.108688 41.334679,66.912628 
	C40.948799,66.930756 40.995003,66.980476 40.905342,66.634193 
	C40.192734,66.182762 39.569790,66.077621 38.946842,65.972481 
	C38.946842,65.972481 38.989868,66.013397 39.098881,65.650223 
	C38.785427,65.185257 38.362965,65.083481 37.940498,64.981697 
	C37.940498,64.981697 38.003822,64.997612 38.253304,64.734268 
	C37.957031,63.317104 37.411270,62.163284 36.903992,60.612759 
	C37.493526,56.088581 39.367661,54.820305 43.408127,56.707146 
	C45.068192,57.482372 47.738525,57.626873 45.719566,54.127659 
	C49.351269,50.985760 52.660412,48.039963 56.311859,45.130867 
	C57.769260,45.434624 58.884354,45.701683 59.999451,45.968739 
	C57.748016,49.386642 55.496578,52.804543 52.822227,56.601624 
	C51.581535,57.331387 50.763748,57.681976 49.945965,58.032566 
	C49.765388,58.026016 49.584808,58.019470 49.038769,57.944595 
	C48.505318,58.113823 48.337326,58.351376 48.169338,58.588928 
	C47.874058,59.192883 47.578773,59.796833 46.926048,60.512470 
	C45.800697,60.210693 45.032791,59.797226 44.264889,59.383762 
	C43.983398,59.701149 43.701908,60.018536 43.420418,60.335922 
	C44.626789,61.564236 45.833160,62.792553 47.039532,64.020866 
z"/>
<path fill="#F2EFF3" opacity="1.000000" stroke="none" 
	d="
M60.287476,45.808544 
	C58.884354,45.701683 57.769260,45.434624 56.182831,44.941269 
	C55.711494,44.714970 55.467232,44.326740 55.693459,44.100502 
	C56.063339,43.716595 56.206993,43.558926 56.722061,43.515793 
	C60.407806,44.140720 63.114212,43.906952 62.445869,38.946545 
	C60.573112,38.808361 58.805180,38.677914 57.046898,38.309479 
	C57.028133,37.754776 57.018715,37.437500 57.028301,37.119656 
	C58.003929,37.068176 58.988525,37.082569 59.953281,36.951229 
	C61.845016,36.693699 63.725697,36.354996 65.610954,36.049885 
	C65.157448,33.616070 64.703941,31.182255 64.131104,28.390194 
	C67.926338,27.853508 67.024414,31.036428 67.602722,33.182564 
	C68.122360,35.111004 68.630852,37.042442 69.366486,39.326805 
	C66.584305,41.670147 63.579903,43.659248 60.287476,45.808544 
z"/>
<path fill="#7F6991" opacity="1.000000" stroke="none" 
	d="
M47.278206,63.993816 
	C45.833160,62.792553 44.626789,61.564236 43.420418,60.335922 
	C43.701908,60.018536 43.983398,59.701149 44.264889,59.383762 
	C45.032791,59.797226 45.800697,60.210693 46.775177,60.812881 
	C47.236729,61.751228 47.491699,62.500851 47.857521,63.526546 
	C47.968372,63.802616 47.516880,63.966766 47.278206,63.993816 
z"/>
<path fill="#7F6991" opacity="1.000000" stroke="none" 
	d="
M50.192436,58.237621 
	C50.763748,57.681976 51.581535,57.331387 52.733456,56.921501 
	C53.348202,57.683872 53.628811,58.505535 53.909420,59.327198 
	C52.752583,59.032356 51.595749,58.737518 50.192436,58.237621 
z"/>
<path fill="#7D658B" opacity="1.000000" stroke="none" 
	d="
M64.089310,51.830753 
	C63.763157,51.918102 63.587147,51.810635 63.191216,51.485558 
	C63.411972,50.847065 63.852650,50.426189 64.293327,50.005310 
	C64.275375,50.548855 64.257423,51.092396 64.089310,51.830753 
z"/>
<path fill="#EAE5EB" opacity="1.000000" stroke="none" 
	d="
M48.294582,58.500854 
	C48.337326,58.351376 48.505318,58.113823 48.767971,57.933067 
	C48.697830,58.112823 48.550228,58.253796 48.294582,58.500854 
z"/>
<path fill="#7F6991" opacity="1.000000" stroke="none" 
	d="
M58.874847,57.879105 
	C58.981651,57.726826 59.358707,57.635681 59.714378,57.783909 
	C59.510361,57.995602 59.327728,57.967922 58.874847,57.879105 
z"/>
<path fill="#F8F7FB" opacity="1.000000" stroke="none" 
	d="
M184.913834,58.637238 
	C184.018814,63.791077 183.562927,68.818314 181.746628,73.293411 
	C180.288223,76.886772 177.073318,79.615044 172.683243,78.957764 
	C173.749847,76.770622 174.740646,74.738976 175.881165,71.969658 
	C176.076721,66.100914 176.303772,60.962566 176.098251,55.841576 
	C175.980896,52.917717 174.224945,51.299335 171.034790,51.838257 
	C171.057037,51.278122 171.056549,50.957954 171.043594,50.637806 
	C173.792297,49.740833 176.541000,48.843861 179.645599,47.898148 
	C184.243576,50.110573 183.969055,54.436146 184.913834,58.637238 
z"/>
<path fill="#F8F7FA" opacity="1.000000" stroke="none" 
	d="
M154.088867,67.003204 
	C154.423233,69.043404 154.757614,71.083595 155.188675,73.713684 
	C152.185455,76.268898 148.880524,76.033066 145.383148,72.035400 
	C144.958923,71.357994 144.930161,71.055008 144.987305,70.373062 
	C145.855194,66.450188 147.519180,62.814247 144.015503,59.407936 
	C144.039200,58.478458 144.056000,57.858833 144.072815,57.239212 
	C144.374023,56.690372 144.675232,56.141533 145.278320,55.219185 
	C145.647278,54.227306 145.714355,53.608929 145.781418,52.990555 
	C145.073380,52.376453 144.365356,51.762356 143.227295,50.720745 
	C142.192627,49.513847 141.587982,48.734455 140.983353,47.955063 
	C142.374008,47.790260 143.764648,47.625458 145.513947,47.434486 
	C149.532532,48.558132 153.100342,49.815010 153.911163,55.105598 
	C153.986099,59.605972 154.037476,63.304588 154.088867,67.003204 
z"/>
<path fill="#E8E6F0" opacity="1.000000" stroke="none" 
	d="
M140.602722,47.933243 
	C141.587982,48.734455 142.192627,49.513847 142.908813,50.568237 
	C141.428787,50.934078 139.837173,51.024921 137.673294,51.148422 
	C139.454651,54.209820 141.717850,57.416882 135.451019,56.851982 
	C132.842712,51.507671 133.794479,49.868923 140.602722,47.933243 
z"/>
<path fill="#F5F6FC" opacity="1.000000" stroke="none" 
	d="
M302.522186,73.671104 
	C298.985809,70.276718 296.234375,66.826645 296.779755,61.421982 
	C299.243164,51.010078 305.045654,46.435036 313.636353,47.888794 
	C314.842346,48.150146 315.681030,48.469044 316.980774,49.183830 
	C317.600281,51.263020 318.527557,53.622398 317.761902,54.493073 
	C316.006714,56.489033 313.545959,57.979809 311.156921,59.281517 
	C304.076996,63.139118 303.986115,66.381493 311.003235,70.965919 
	C312.870453,71.407455 314.737671,71.848991 316.604675,72.291260 
	C313.399109,75.813751 308.884094,76.314499 302.522186,73.671104 
M305.159760,58.046783 
	C307.913025,61.495266 309.542694,57.866684 311.136597,56.729546 
	C311.908295,56.178989 311.684387,53.758976 311.346619,52.317684 
	C311.164917,51.542324 309.393463,50.346222 309.026398,50.553982 
	C307.850189,51.219646 306.751099,52.315720 306.086700,53.505150 
	C305.476440,54.597645 305.467834,56.026215 305.159760,58.046783 
z"/>
<path fill="#484FC4" opacity="1.000000" stroke="none" 
	d="
M311.098083,70.640205 
	C303.986115,66.381493 304.076996,63.139118 311.156921,59.281517 
	C313.545959,57.979809 316.006714,56.489033 317.761902,54.493073 
	C318.527557,53.622398 317.600281,51.263020 317.301941,49.287666 
	C317.919403,49.010521 318.676788,49.025436 319.812622,49.057011 
	C321.443237,52.120674 322.695404,55.167675 323.898621,58.611908 
	C319.630737,62.777584 315.411835,66.546036 311.098083,70.640205 
z"/>
<path fill="#F3F2F8" opacity="1.000000" stroke="none" 
	d="
M170.653412,50.646263 
	C171.056549,50.957954 171.057037,51.278122 170.887924,52.233837 
	C170.360107,59.535118 169.989441,66.200867 169.618774,72.866615 
	C168.839737,73.621498 168.060669,74.376381 167.022751,75.240982 
	C159.056839,75.683304 161.592819,69.853523 161.064941,64.978653 
	C161.087601,60.822140 161.296768,57.541031 161.028122,54.299515 
	C160.922104,53.020500 159.751099,51.829750 159.065033,50.598808 
	C160.220459,49.568985 161.375885,48.539158 162.767456,47.311195 
	C165.423492,48.293613 167.843353,49.474167 170.653412,50.646263 
z"/>
<path fill="#655AA2" opacity="1.000000" stroke="none" 
	d="
M158.967636,50.947334 
	C159.751099,51.829750 160.922104,53.020500 161.028122,54.299515 
	C161.296768,57.541031 161.087601,60.822140 160.984161,64.545494 
	C158.857224,65.610458 156.815903,66.217323 154.431717,66.913696 
	C154.037476,63.304588 153.986099,59.605972 154.013702,55.452137 
	C155.685196,53.763233 157.277725,52.529545 158.967636,50.947334 
z"/>
<path fill="#F5F4F9" opacity="1.000000" stroke="none" 
	d="
M143.716461,57.282108 
	C144.056000,57.858833 144.039200,58.478458 143.678116,59.529350 
	C142.086899,61.953468 140.134903,63.817593 139.742584,65.966469 
	C138.970993,70.192696 140.874588,71.660957 144.894699,70.752655 
	C144.930161,71.055008 144.958923,71.357994 144.995728,71.889420 
	C143.583374,73.125267 142.156342,74.133316 140.367126,75.266220 
	C134.969193,75.883423 131.756012,73.162239 131.450195,68.622391 
	C131.168640,64.443039 133.632584,61.104534 138.266983,59.919567 
	C140.068085,59.459053 141.668350,58.213150 143.716461,57.282108 
z"/>
<path fill="#F5F4F9" opacity="1.000000" stroke="none" 
	d="
M145.599915,53.301365 
	C145.714355,53.608929 145.647278,54.227306 145.391312,54.924889 
	C145.274399,54.540119 145.346405,54.076149 145.599915,53.301365 
z"/>
<path fill="#EAE5EB" opacity="1.000000" stroke="none" 
	d="
M45.397007,54.323761 
	C47.738525,57.626873 45.068192,57.482372 43.408127,56.707146 
	C39.367661,54.820305 37.493526,56.088581 36.642597,60.613876 
	C35.994202,61.013229 35.645691,61.014759 35.297176,61.016289 
	C34.276272,55.943024 37.686760,54.555244 41.557533,53.591087 
	C40.737995,51.571297 39.945671,49.618584 39.020325,47.333275 
	C38.518002,46.270424 38.148705,45.540173 37.824409,44.576439 
	C38.925510,44.585178 39.981606,44.827393 41.003464,45.047852 
	C40.969219,45.026093 40.941204,44.949944 40.982693,45.327904 
	C42.481789,48.578495 43.939400,51.451130 45.397007,54.323761 
z"/>
<path fill="#7E678F" opacity="1.000000" stroke="none" 
	d="
M25.178228,74.757439 
	C24.595865,75.026291 24.165859,75.063904 23.426201,75.202827 
	C24.409204,72.192055 25.701855,69.079971 26.994507,65.967896 
	C27.559958,66.197372 28.125410,66.426857 28.690861,66.656342 
	C27.570768,69.279625 26.450676,71.902908 25.178228,74.757439 
z"/>
<path fill="#EFECF1" opacity="1.000000" stroke="none" 
	d="
M35.108181,61.312725 
	C35.645691,61.014759 35.994202,61.013229 36.604111,61.010582 
	C37.411270,62.163284 37.957031,63.317104 38.248665,64.766586 
	C35.594322,64.857025 33.194103,64.651802 30.298101,64.404190 
	C31.905767,63.431805 33.412476,62.520485 35.108181,61.312725 
z"/>
<path fill="#EFECF1" opacity="1.000000" stroke="none" 
	d="
M37.881508,65.281769 
	C38.362965,65.083481 38.785427,65.185257 39.127777,65.657013 
	C38.869980,66.088982 38.692291,66.150978 38.232792,66.196404 
	C37.908157,65.980499 37.865334,65.781174 37.881508,65.281769 
z"/>
<path fill="#EDE9EE" opacity="1.000000" stroke="none" 
	d="
M35.992878,39.045715 
	C36.508736,37.942154 37.024593,36.838593 37.434998,35.365288 
	C37.524296,33.569199 37.719040,32.142853 38.428398,30.391743 
	C39.213882,30.077816 39.484756,30.088650 39.755630,30.099485 
	C38.492981,36.675007 38.940987,37.493740 43.777710,37.919933 
	C43.557468,39.821121 43.319736,41.220318 43.082001,42.619514 
	C45.014526,42.930161 46.947048,43.240807 48.904465,43.892242 
	C48.947132,44.460144 48.964916,44.687248 48.640816,45.069885 
	C45.846359,45.133591 43.393780,45.041767 40.941204,44.949944 
	C40.941204,44.949944 40.969219,45.026093 41.210217,44.666546 
	C41.095589,42.739651 40.739960,41.172302 40.337681,39.399330 
	C38.813965,39.275318 37.403419,39.160519 35.992878,39.045715 
z"/>
<path fill="#DDD5DD" opacity="1.000000" stroke="none" 
	d="
M39.963627,29.864271 
	C39.484756,30.088650 39.213882,30.077816 38.536758,30.049339 
	C41.980953,24.309412 47.261131,21.443031 54.617966,21.917286 
	C55.846123,22.452351 56.695152,23.037613 57.784126,23.804094 
	C58.024071,23.985315 58.007538,24.012106 58.007538,24.012106 
	C50.998821,22.507696 45.266388,25.055956 39.963627,29.864271 
z"/>
<path fill="#CFC8D9" opacity="1.000000" stroke="none" 
	d="
M67.200562,83.052513 
	C67.386436,82.243126 67.742233,81.734955 68.256409,80.959061 
	C71.114174,88.302788 77.027306,89.673622 84.534851,88.921158 
	C81.525146,92.354729 77.647545,91.204361 73.387390,90.091858 
	C71.118080,87.784393 69.244278,85.569061 67.200562,83.052513 
z"/>
<path fill="#8D7694" opacity="1.000000" stroke="none" 
	d="
M48.879574,43.551453 
	C46.947048,43.240807 45.014526,42.930161 43.082001,42.619514 
	C43.319736,41.220318 43.557468,39.821121 44.063442,38.229012 
	C45.992687,38.081635 47.653698,38.127171 49.698891,38.693947 
	C49.681911,40.660614 49.280743,42.106033 48.879574,43.551453 
z"/>
<path fill="#DED7E1" opacity="1.000000" stroke="none" 
	d="
M48.904465,43.892242 
	C49.280743,42.106033 49.681911,40.660614 50.025528,38.832481 
	C52.075207,37.999340 54.182430,37.548912 56.658978,37.109070 
	C57.018715,37.437500 57.028133,37.754776 56.740158,38.478676 
	C56.399384,40.390995 56.375015,41.896130 56.350643,43.401260 
	C56.206993,43.558926 56.063339,43.716595 55.440178,43.912743 
	C54.222271,42.974407 53.483871,41.997585 53.088421,41.474445 
	C51.611458,42.711895 50.297077,43.813122 48.982697,44.914352 
	C48.964916,44.687248 48.947132,44.460144 48.904465,43.892242 
z"/>
<path fill="#DDD5DD" opacity="1.000000" stroke="none" 
	d="
M58.043846,23.991213 
	C58.063625,23.997110 58.154877,24.295921 58.154877,24.295921 
	C58.154877,24.295921 58.229153,23.926208 58.118347,23.969158 
	C58.007538,24.012106 58.024071,23.985315 58.043846,23.991213 
z"/>
<path fill="#6056A4" opacity="1.000000" stroke="none" 
	d="
M170.053070,72.809219 
	C169.989441,66.200867 170.360107,59.535118 170.877625,52.473785 
	C174.224945,51.299335 175.980896,52.917717 176.098251,55.841576 
	C176.303772,60.962566 176.076721,66.100914 175.871094,71.577545 
	C173.969986,72.199348 172.228668,72.475586 170.053070,72.809219 
z"/>
<path fill="#7E668B" opacity="1.000000" stroke="none" 
	d="
M36.026985,39.445984 
	C37.403419,39.160519 38.813965,39.275318 40.337681,39.399330 
	C40.739960,41.172302 41.095589,42.739651 41.244461,44.688301 
	C39.981606,44.827393 38.925510,44.585178 37.573452,44.502804 
	C36.872025,43.057178 36.466560,41.451714 36.026985,39.445984 
z"/>
<path fill="#DFDAE7" opacity="1.000000" stroke="none" 
	d="
M81.085976,72.118988 
	C81.538979,72.725883 82.448883,73.506180 82.310257,73.813522 
	C80.704361,77.373741 78.939964,80.862473 77.217613,84.370163 
	C76.739830,84.140915 76.262047,83.911674 75.784264,83.682426 
	C77.507523,80.059647 79.230774,76.436867 81.052643,72.471466 
	C81.151253,72.128845 81.055809,72.072701 81.085976,72.118988 
z"/>
<path fill="#EFECF1" opacity="1.000000" stroke="none" 
	d="
M39.056103,66.354897 
	C39.569790,66.077621 40.192734,66.182762 40.937393,66.645355 
	C40.427860,66.914299 39.796612,66.825806 39.056103,66.354897 
z"/>
<path fill="#5F5DB7" opacity="1.000000" stroke="none" 
	d="
M242.544220,50.799591 
	C243.989288,52.014282 246.307724,54.033600 245.975800,54.669544 
	C244.910294,56.710915 242.865097,58.240917 241.197845,59.968201 
	C240.529388,59.512440 239.860931,59.056679 239.192474,58.600918 
	C240.196411,56.057590 241.200348,53.514259 242.544220,50.799591 
z"/>
<path fill="#5154BE" opacity="1.000000" stroke="none" 
	d="
M277.356506,64.548264 
	C277.508942,60.978901 277.339752,57.757458 278.054962,54.746063 
	C278.420013,53.208992 280.371765,52.048756 281.606323,50.718185 
	C282.751801,52.090683 284.735443,53.379486 284.882477,54.851700 
	C285.291107,58.943924 285.320343,63.170017 284.711426,67.224907 
	C284.432434,69.083015 282.306000,70.663719 281.017365,72.370224 
	C279.946075,70.725433 278.793488,69.125755 277.843628,67.413612 
	C277.465210,66.731514 277.535126,65.800705 277.356506,64.548264 
z"/>
<path fill="#7E668B" opacity="1.000000" stroke="none" 
	d="
M48.640816,45.069885 
	C50.297077,43.813122 51.611458,42.711895 53.088421,41.474445 
	C53.483871,41.997585 54.222271,42.974407 55.213951,44.138985 
	C55.467232,44.326740 55.711494,44.714970 55.840527,44.904568 
	C52.660412,48.039963 49.351269,50.985760 45.719566,54.127659 
	C43.939400,51.451130 42.481789,48.578495 40.982693,45.327904 
	C43.393780,45.041767 45.846359,45.133591 48.640816,45.069885 
z"/>
<path fill="#836B8F" opacity="1.000000" stroke="none" 
	d="
M56.722061,43.515793 
	C56.375015,41.896130 56.399384,40.390995 56.730499,38.716667 
	C58.805180,38.677914 60.573112,38.808361 62.445869,38.946545 
	C63.114212,43.906952 60.407806,44.140720 56.722061,43.515793 
z"/>
<path fill="#7166A6" opacity="1.000000" stroke="none" 
	d="
M144.987305,70.373062 
	C140.874588,71.660957 138.970993,70.192696 139.742584,65.966469 
	C140.134903,63.817593 142.086899,61.953468 143.671234,59.839203 
	C147.519180,62.814247 145.855194,66.450188 144.987305,70.373062 
z"/>
<path fill="#5D62C7" opacity="1.000000" stroke="none" 
	d="
M305.176941,57.676750 
	C305.467834,56.026215 305.476440,54.597645 306.086700,53.505150 
	C306.751099,52.315720 307.850189,51.219646 309.026398,50.553982 
	C309.393463,50.346222 311.164917,51.542324 311.346619,52.317684 
	C311.684387,53.758976 311.908295,56.178989 311.136597,56.729546 
	C309.542694,57.866684 307.913025,61.495266 305.176941,57.676750 
z"/>
</svg>